<?xml version="1.0" encoding="UTF-8"?>
<svg version="1.1" viewBox="0 0 2000 388" xmlns="http://www.w3.org/2000/svg">
<g transform="translate(-1.2121 .62777)">
<svg width="2e3" height="388" data-background-color="#f8f8f8" viewBox="0 0 396 77" xmlns="http://www.w3.org/2000/svg" xmlns:xlink="http://www.w3.org/1999/xlink">
<g transform="translate(.24 -.12458)">
<svg width="395.52" height="77.249" viewBox="0 0 395.52 77.24916751740437">
<svg width="395.52" height="77.249" viewBox="0 0 567.0880042811798 110.75818224066391">
<g transform="translate(171.57 28.665)">
<svg width="395.52" height="53.429" viewBox="0 0 395.52 53.42893499308437">
<svg width="395.52" height="53.429" viewBox="0 0 395.52 53.42893499308437">
<svg width="395.52" height="53.429" viewBox="0 0 395.52 53.42893499308437">
<g>
<svg width="395.52" height="53.429" data-palette-color="#65a30d" viewBox="4.35 -36.23 270.11 36.629999999999995">
<g class="undefined-text-0" data-fill-palette-color="primary">
<path d="m21.98-12.95q0.35 0.6 0.61 1.26t0.51 1.34q0.25-0.7 0.53-1.34 0.27-0.64 0.62-1.29l12.13-22.02q0.32-0.58 0.67-0.7 0.35-0.13 1-0.13h3.58v35.83h-4.25v-26.33q0-0.52 0.02-1.12 0.03-0.6 0.08-1.23l-12.28 22.4q-0.62 1.13-1.75 1.13h-0.7q-1.12 0-1.75-1.13l-12.55-22.47q0.08 0.65 0.11 1.27 0.04 0.63 0.04 1.15v26.33h-4.25v-35.83h3.58q0.65 0 1 0.13 0.35 0.12 0.67 0.7l12.38 22.05zm28.37-22.88h22.07v3.95h-17.2v11.9h13.93v3.8h-13.93v12.23h17.2v3.95h-22.07v-35.83zm44.2 0 14.32 35.83h-3.75q-0.65 0-1.05-0.33-0.4-0.32-0.6-0.82l-3.35-8.65h-16.07l-3.35 8.65q-0.18 0.45-0.61 0.8-0.42 0.35-1.04 0.35h-3.75l14.32-35.83h4.93zm-3.53 7.98-5.62 14.55h13.37l-5.62-14.58q-0.56-1.35-1.08-3.37-0.27 1.02-0.54 1.89-0.26 0.86-0.51 1.51zm27.22-7.98v31.75h15.5v4.08h-20.35v-35.83h4.85z" fill="#65a30d" data-fill-palette-color="primary"/>
<path d="m143.84-35.83v35.83h-4.85v-35.83h4.85zm40.65 17.93q0 4.02-1.28 7.32-1.27 3.3-3.6 5.65-2.32 2.35-5.57 3.64t-7.2 1.29h-13.4v-35.83h13.4q3.95 0 7.2 1.29t5.57 3.65q2.33 2.36 3.6 5.66 1.28 3.3 1.28 7.33zm-4.98 0q0-3.3-0.9-5.9t-2.55-4.4-4-2.75-5.22-0.95h-8.53v27.97h8.53q2.87 0 5.22-0.95t4-2.73q1.65-1.79 2.55-4.39t0.9-5.9zm11.58-17.93h22.07v3.95h-17.2v11.9h13.93v3.8h-13.93v12.23h17.2v3.95h-22.07v-35.83zm44.19 0 14.33 35.83h-3.75q-0.65 0-1.05-0.33-0.4-0.32-0.6-0.82l-3.35-8.65h-16.08l-3.35 8.65q-0.17 0.45-0.6 0.8-0.42 0.35-1.05 0.35h-3.75l14.33-35.83h4.92zm-3.52 7.98-5.63 14.55h13.38l-5.63-14.58q-0.55-1.35-1.07-3.37-0.28 1.02-0.54 1.89-0.26 0.86-0.51 1.51zm41.9-4.67-1.18 2.29q-0.22 0.38-0.47 0.57-0.25 0.18-0.65 0.18-0.43 0-0.99-0.42-0.57-0.43-1.43-0.94t-2.07-0.94q-1.21-0.42-2.94-0.42-1.63 0-2.87 0.44-1.25 0.43-2.09 1.18t-1.26 1.77q-0.43 1.01-0.43 2.18 0 1.5 0.74 2.49t1.95 1.69 2.75 1.21 3.15 1.06 3.15 1.24q1.53 0.69 2.75 1.74 1.21 1.05 1.95 2.57 0.74 1.53 0.74 3.75 0 2.35-0.8 4.42-0.8 2.06-2.34 3.58-1.54 1.53-3.78 2.4-2.24 0.88-5.08 0.88-3.48 0-6.34-1.26-2.86-1.27-4.89-3.42l1.4-2.3q0.2-0.27 0.49-0.46t0.64-0.19q0.52 0 1.2 0.57 0.67 0.56 1.68 1.23 1.02 0.68 2.45 1.24 1.44 0.56 3.52 0.56 1.72 0 3.07-0.47 1.35-0.48 2.29-1.34t1.44-2.06 0.5-2.68q0-1.62-0.74-2.66t-1.94-1.74-2.74-1.18q-1.53-0.49-3.15-1-1.61-0.52-3.15-1.19-1.53-0.68-2.73-1.75-1.2-1.08-1.94-2.69t-0.74-3.99q0-1.9 0.74-3.67 0.74-1.78 2.14-3.15 1.4-1.38 3.46-2.2 2.06-0.83 4.74-0.83 3 0 5.47 0.96 2.47 0.94 4.33 2.75z" fill="#4b555f" data-fill-palette-color="secondary"/>
</g>
</svg>
</g>
</svg>
</svg>
</svg>
</g>
<svg width="158.95" height="110.76" viewBox="0 0 158.95471502375239 110.75818224066391">
<svg class="icon-icon-0" width="158.95" height="110.76" enable-background="new 0 0 100 100" data-fill-palette-color="accent" version="1.1" viewBox="6.15904600363636 19.884685628530764 87.70970399636363 61.11531437146924" xml:space="preserve" xmlns="http://www.w3.org/2000/svg" xmlns:xlink="http://www.w3.org/1999/xlink"><g fill="#4b555f" data-fill-palette-color="accent"><path d="M93.4 75.1C93 74.8 92.3 75 92 75.4L89.7 79H9.8L8 75.3c-0.2-0.5-0.8-0.7-1.3-0.4-0.5 0.2-0.7 0.8-0.4 1.3l2.1 4.2C8.5 80.8 8.8 81 9.2 81h81.1c0.3 0 0.7-0.2 0.8-0.5l2.6-4C94 76 93.9 75.4 93.4 75.1z" data-fill-palette-color="accent"/><path d="m16.3 69.4h2.1v2.1c0 3 2.4 5.4 5.4 5.4h18.2c3 0 5.4-2.4 5.4-5.4v-3c1.2 0.7 2.4 1.3 3.8 1.8l-1 5.1c-0.1 0.3 0 0.6 0.2 0.8s0.5 0.4 0.8 0.4h22.2c0.3 0 0.6-0.1 0.8-0.4 0.2-0.2 0.3-0.5 0.2-0.8l-1-5.1c6.7-2.5 13.2-8 13.6-19.9 0-0.3-0.1-0.5-0.3-0.7s-0.4-0.3-0.7-0.3h-7.8c2-2.2 7.5-8.6 7-13.2-0.2-1.5-0.8-3-1.8-4.1l3.8-5.1c0.3-0.4 0.2-1.1-0.2-1.4s-1.1-0.2-1.4 0.2l-2.6 3.2 0.9-8c0.1-0.5-0.3-1-0.9-1.1-0.5-0.1-1 0.3-1.1 0.9l-1 9.2c-0.3-0.1-0.5-0.3-0.8-0.4-2.2-0.8-4.4-0.5-5.8 0.8-1.8 1.7-3.9 4.7-5.2 6.8-0.2-0.8-0.4-1.5-0.8-2.2-1-1.6-2.5-2.4-4.5-2.6-2.1-0.2-3.7 0.4-4.8 1.6-0.6 0.7-0.9 1.5-1.1 2.3-0.8-0.6-2-1.1-3.5-1.3-1.6-0.2-2.9 0.1-3.9 1.1-1.1 1-1.5 2.5-1.7 3.8-0.4-0.2-0.9-0.4-1.4-0.5-1.4-0.1-2.7 0.6-4 2.3-1.4 1.8-1.9 3.6-1.4 5.2 0.3 0.9 0.8 1.7 1.4 2.3h-4.7c-0.3 0-0.5 0.1-0.7 0.3s-0.3 0.5-0.3 0.7c0 0.8 0.1 1.6 0.2 2.4h-18.5c-0.6 0-1 0.4-1 1v5.4h-2.1c-2.9 0-5.2 2.3-5.2 5.2 0 2.8 2.4 5.2 5.2 5.2zm23.8-14.6h5.2v16.7c0 1.9-1.5 3.4-3.4 3.4h-18.1c-1.9 0-3.4-1.5-3.4-3.4v-16.7h19.7zm32 19.7h-19.7l0.7-3.7c2.3 0.6 4.8 1.1 7.5 1.3h1.7 1.5c2.2-0.1 4.9-0.5 7.5-1.3l0.8 3.7zm-2.8-33.7 0.1-0.1s1.1-1.9 2.5-4c3 0 5.6 3.1 5.6 3.1 0.2 0.2 0.5 0.4 0.8 0.4 0.2 0 0.4-0.1 0.6-0.2 0.4-0.3 0.5-1 0.1-1.4-0.1-0.1-2.6-3.1-5.8-3.7 0.8-1.1 1.7-2.1 2.4-2.8 0.9-0.8 2.3-1 3.8-0.4s3.4 2.2 3.7 4.8c0.3 2.7-2.5 6.9-4.9 9.8-1-0.9-2.7-1.9-4.1-2.7-0.5-0.3-1.1-0.1-1.3 0.4-0.3 0.5-0.1 1.1 0.4 1.3 1.6 0.9 3.3 1.9 3.8 2.4-0.3 0.4-0.6 0.7-0.9 1-0.2 0.2-0.3 0.5-0.3 0.7h-8.4c0.6-1.7 1.7-5.2 1.9-8.6zm-25.5 5.7c-0.3-1 0.1-2.1 1.1-3.4 0.6-0.7 1.4-1.6 2.2-1.5s1.4 1 1.6 1.4 0.7 0.6 1.2 0.5 0.8-0.6 0.7-1c-0.1-0.9 0-3.5 1.2-4.7 0.5-0.5 1.3-0.7 2.3-0.5 2.3 0.3 3.3 1.4 3.7 2.2 0.1 1 0.3 1.7 0.3 1.8 0.1 0.5 0.6 0.8 1 0.7 0.5 0 0.9-0.4 0.9-0.9 0.1-0.6 0-1.3-0.3-2.1-0.1-1.2 0-2.6 0.8-3.4 0.6-0.7 1.6-1 3.1-0.9 1.4 0.1 2.4 0.6 3 1.6 2 3.2-0.2 10.3-1.3 13.1h-3.5l0.9-5.6c0.1-0.5-0.3-1.1-0.8-1.2s-1.1 0.3-1.2 0.8l-1 6h-4.7l-2.4-4c-0.3-0.5-0.9-0.6-1.4-0.3s-0.6 0.9-0.3 1.4l1.8 2.9h-5.7c-0.7-0.3-2.7-1.3-3.2-2.9zm-4.1 4.8h45.1c-1 14.5-12 18.3-21.1 18.8-1.5 0.1-3 0-3 0-5.6-0.5-10-1.9-13.4-4.1v-12.2c0-0.6-0.4-1-1-1h-6.6v-1.5zm-23.4 9.7h2.1v6.4h-2.1c-1.8 0-3.2-1.4-3.2-3.2s1.5-3.2 3.2-3.2z" data-fill-palette-color="accent"/><path d="m28.8 22.9c0.1 0 3.2 1 2.6 4.3-0.2 1.2-0.9 2.1-1.6 3-1.4 1.9-3.1 4.1 0.8 8 0.2 0.2 0.5 0.3 0.7 0.3 0.3 0 0.5-0.1 0.7-0.3 0.4-0.4 0.4-1 0-1.4-2.7-2.7-2-3.6-0.6-5.4 0.8-1 1.7-2.2 1.9-3.9 0.7-4-2.4-6-4-6.5-0.5-0.2-1.1 0.1-1.2 0.7-0.1 0.4 0.2 1 0.7 1.2z" data-fill-palette-color="accent"/><path d="m32.4 32.2c-0.3 0.5-0.1 1.1 0.3 1.4 0.3 0.2 2.8 1.9 1.4 4.8-0.5 1.1-1.4 1.8-2.3 2.5-1.9 1.5-4 3.2-1.3 8 0.2 0.3 0.5 0.5 0.9 0.5 0.2 0 0.3 0 0.5-0.1 0.5-0.3 0.7-0.9 0.4-1.4-1.9-3.3-1-4 0.8-5.4 1-0.8 2.2-1.7 2.9-3.3 1.7-3.7-0.7-6.4-2.2-7.3-0.5-0.3-1.1-0.1-1.4 0.3z" data-fill-palette-color="accent"/></g></svg>
</svg>
</svg>
</svg>
<rect width="395.52" height="77.249" fill="none" visibility="hidden"/>
</g>
</svg>
</g>
</svg>
