<?xml version="1.0" encoding="UTF-8"?>
<svg id="Layer_2" data-name="Layer 2" xmlns="http://www.w3.org/2000/svg" viewBox="0 0 51.89 59.2">
  <defs>
    <style>
      .cls-1 {
        fill: #4d4d4d;
      }
    </style>
  </defs>
  <g id="icon">
    <g>
      <path class="cls-1" d="M51.17,41.5c-4.23-.38-2.05-4.3-2.75-6.86-.58-2.1-2.75-3-4.7-3.31-5.52-2.83-8.4-10.21-9.03-15.97,.09-3.48,.97-8.12-.78-11.35C32.5,1.38,28.86,.08,26.07,0c-4.11-.1-7.72,.65-9.65,4.66-1.6,3.33-1.14,7.44-.67,10.97,0,.03,.02,.05,.03,.08,.06,6.03-4.02,11.88-9.63,14.15-.02,0-.03,.03-.05,.04-.09,.02-.17,.05-.25,.11-1.69,.88-3.25,2.18-3.56,4.17-.56,3.56,1.35,6.48-2.04,9.29-.74,.62,.32,1.67,1.06,1.06,1.51-1.25,2.6-3.06,2.76-5.04,.25-3.16-1.05-5.68,1.65-7.63,.83,8.71,.82,17.43,.8,26.18,0,.42,.34,.73,.75,.75,11.96,.51,24.24,.59,36.19-.1,.4-.02,.76-.33,.75-.75-.24-8.33,.41-16.66,.04-24.98,1.27,.32,2.54,.95,2.78,2.35,.22,1.24-.18,2.61-.11,3.87,.14,2.26,2.12,3.62,4.25,3.81,.96,.09,.96-1.41,0-1.5ZM27.14,1.55c3.29,.52,5.84,2.98,6.15,6.25,.22,2.29,.02,4.61-.07,6.91-4.95,.68-11.21,1.63-16.06,.16-.88-7.17,.71-14.79,9.98-13.32Zm14.81,55.71c-2.15,.41-4.71,.09-6.89,.12-3.27,.03-6.54,.05-9.81,.05-5.3,0-11.08,.62-16.34-.09-1.82-.25-1.06,0-.89-2.21,.21-2.71,.02-5.5-.01-8.22-.06-5.3-.33-10.59-.87-15.86,5.7-2.56,9.89-8.33,10.13-14.58,4.94,1.32,11.04,.41,16.02-.27,.84,6.05,3.82,13.27,9.42,16.29,.25,5.05,.12,10.1,0,15.16-.05,2.45-.5,5.38-.08,7.81,.31,1.81,.88,1.51-.7,1.81Z"/>
      <path class="cls-1" d="M34.21,39.65s-.08-.01-.13,0c-5.81,.85-12.69,.96-18.52,.25-.26-.03-.44,.06-.56,.21-.13,.12-.21,.3-.19,.54,.31,3.35-.17,8.5,2.35,11.17,2.16,2.29,6.09,2.61,9.05,2.55,8.18-.17,10.04-7.18,8.8-14.19-.08-.45-.45-.59-.79-.52Zm-.55,1.55c.1,.65,.19,1.31,.24,1.99-5.72,1.05-11.65,.63-17.41,.1-.04-.62-.07-1.23-.11-1.82,5.52,.59,11.78,.46,17.29-.28Zm-8.61,11.65c-2.75-.11-5.21-.41-6.86-2.73-1.04-1.46-1.4-3.37-1.59-5.31,5.76,.52,11.63,.89,17.35-.11,0,1.23-.15,2.45-.54,3.55-1.32,3.73-4.81,4.74-8.36,4.6Z"/>
    </g>
  </g>
</svg>