<?xml version="1.0" encoding="UTF-8"?>
<svg id="Layer_2" data-name="Layer 2" xmlns="http://www.w3.org/2000/svg" viewBox="0 0 37.53 58.78">
  <defs>
    <style>
      .cls-1 {
        fill: #4d4d4d;
      }
    </style>
  </defs>
  <g id="icon">
    <g>
      <path class="cls-1" d="M36.71,13.55c-1.31-1.75-4.11-1.75-6.2-1.52-.39-2.55-1.35-6.43-3.61-7.84-1.37-.86-3.22-1.2-5.08-1.32,.08-.7,.17-1.41,.02-2.09-.06-.25-.28-.45-.52-.52-1.34-.39-3.02-.21-4.41-.22-1.53,0-3.01,.03-4.49,.44-.41,.11-.6,.52-.52,.92,.1,.53,.21,1.05,.31,1.58-2.23,.08-4.47,.35-6.13,1.33-2.42,1.43-2.56,5.14-2.94,7.73-.79,.04-1.59,.07-2.38,.13-.04,0-.07,.02-.11,.03,0,0-.01,0-.02,0-.08,.02-.16,.05-.23,.09-.31,.17-.5,.52-.33,.9,0,.03,.02,.06,.03,.09,0,0,0,0,0,0,0,.01,.02,.03,.03,.04,.03,.05,.05,.1,.09,.14,1.27,2.04,2.92,4.12,3.85,6.32-.13-.31,.08,.45,.16,.92,.2,1.19,.33,2.39,.51,3.58,.51,3.49,1.04,6.97,1.67,10.44,.42,2.35,.6,5.54,1.8,7.67,0,.01,.01,.02,.02,.03-1.46,3.43-2.27,7.09-3.14,10.7-.48,1.98-1.07,3.8,.97,4.96,1.89,1.08,4.98,.56,7.04,.58,3.29,.04,6.58,.07,9.88,.04,2.97-.02,6.71,.23,6.23-3.76-.48-3.96-1.84-8.56-3.5-12.21,.82-1.41,.72-4.6,.97-6.1,.22-1.36,.44-2.72,.65-4.08,.02,0,.03,.01,.05,.01,2.1,.09,4.74,.58,6.15-1.3,.78-1.04,1.01-2.82,1.4-4.06,.68-2.17,1.32-4.36,1.87-6.56,.53-2.11,1.39-5.12-.08-7.09Zm-7.12,5.23c.44-.02,.94-.08,1.38,0,1.19,.22,.96,.89,.83,1.86-.14,1.06-.46,2.13-.73,3.16-.23,.87-.33,2.32-1.35,2.65-.43,.14-.95,.07-1.45,.09,.41-2.59,.83-5.19,1.27-7.78,.02,0,.03,0,.05,0ZM13.49,1.77c1.12-.22,2.26-.24,3.41-.24,1.07,0,2.41-.11,3.53,.08,0,.39-.04,.8-.1,1.2-1.17-.01-2.3,.04-3.27,.08-1,.05-2.15,.03-3.34,.04-.08-.39-.15-.78-.23-1.16Zm-5.93,3.55c1.9-1.27,6.65-.8,8.85-.9,2.65-.13,5.44-.29,8.01,.58,3.02,1.01,4.05,4.01,4.55,6.91-8.09,.38-16.21-.23-24.33,.04,.36-2.45,.71-5.15,2.91-6.63ZM2.08,13.58c8.96-.54,17.94,.25,26.88-.17-.68,3.87-1.31,7.74-1.93,11.62-2.29,1.31-4.51,2.31-7.19,1.93-2.26-.32-4.28-1.69-6.57-2.08-2.44-.41-4.68-.14-6.84,.92-.09-.75-.19-1.48-.29-2.2-.21-1.43-.2-3.11-.71-4.46-.72-1.92-2.15-3.77-3.35-5.55ZM27.81,55.98c-.67,1.74-3.94,1.23-5.26,1.24-4.03,.02-8.06-.02-12.09-.08-.76-.01-2.43,.22-3.06-.14-1.7-.98-.89-3.39-.55-4.76,.73-2.94,1.39-5.9,2.54-8.72,.66,.29,1.46,.3,2.42,.35,3.43,.19,6.91,.01,10.34-.17,.72-.04,1.57,.04,2.29-.11,1.08,2.45,1.71,5.23,2.4,7.8,.25,.93,1.36,3.57,.97,4.58Zm-3.18-16.14c-.12,.73-.19,1.5-.37,2.22,0,0,0,.02,0,.03-.13,.03-.3,.05-.54,.01-2.63-.39-5.8,.29-8.47,.31-2.16,.02-5.1,.7-5.97-1.51-1.6-4.09-2.13-8.96-2.66-13.53,4.83-2.66,8.32,.35,13.05,1.15,2.52,.43,4.87-.48,7.06-1.64-.21,1.33-.43,2.66-.64,3.99-.48,2.98-.96,5.97-1.45,8.95Zm9.24-14.34c-.39,1.27-.66,3.5-1.47,4.55-1.17,1.51-3.17,1.12-4.85,1.03,.16-.99,.32-1.99,.48-2.98,.04,0,.07,0,.1-.01,1.08-.35,2.4,.19,3.29-.74,1.02-1.07,1.18-3.42,1.51-4.79,.31-1.29,.85-3.02,.18-4.29-.59-1.13-2.18-1.04-3.31-1,.21-1.24,.42-2.49,.64-3.73,7.61-.86,4.61,8.06,3.43,11.96Z"/>
      <path class="cls-1" d="M18.14,46.01c-.08-.06-.18-.1-.3-.11-.12-.03-.23-.04-.33-.02-2.37-.21-4.68,1.08-5.23,3.54-.66,2.9,1.21,5.1,4,5.49,2.63,.36,4.5-1.53,5.01-4.05,.43-2.16-1.21-4.14-3.15-4.84Zm-1.15,7.46c-1.88-.03-3.46-1.17-3.34-3.19,.11-1.94,1.94-3.22,3.79-2.94,1.16,.33,2,1.16,2.27,2.34,.37,1.59-1.01,3.81-2.73,3.79Z"/>
    </g>
  </g>
</svg>