<?xml version="1.0" encoding="UTF-8"?>
<svg id="Layer_2" data-name="Layer 2" xmlns="http://www.w3.org/2000/svg" viewBox="0 0 37.88 58.89">
  <defs>
    <style>
      .cls-1 {
        fill: #4d4d4d;
      }
    </style>
  </defs>
  <g id="icon">
    <g>
      <path class="cls-1" d="M.95,0c-.07-.01-.14,0-.2,0,0,0-.02,0-.03,0-.05,0-.1,0-.15,.02C.26,.09,0,.32,0,.73,.27,11.58,.55,22.43,.79,33.28c0,4.15,.02,8.3,.02,12.44,0,2.64-.18,5.42,.41,8.01,.73,3.17,3.7,6.2,6.86,3.77,3.14-2.42,2.53-5.77,2.07-9.21-.64-4.81-1.49-9.6-2.5-14.35,.74,0,1.48-.01,2.22-.03,.29,0,.68-.23,.72-.55,.9-6.52,2.34-13.5,.61-20C9.94,8.6,6.34,1.05,.95,0ZM9.08,52.33c-.1,3.04-3.61,5.66-5.82,2.76-1.21-1.59-.91-4.56-.94-6.47-.06-4.87-.02-9.74-.02-14.61,1.28-.02,2.56-.04,3.83-.05,1.26,5.79,3.14,12.43,2.95,18.37Zm.57-22.95c-.16,1.16,.02,2.38-1.1,3.07-.72,.44-3.05,.03-3.94,.03-2.14,.02-2.1,.01-2.36-2.08-.16-1.32,.03-2.89,.05-4.21,.04-2.99-.01-5.97-.15-8.96-.23-5.16-.48-10.32-.62-15.48,3.02,1.17,4.94,4.71,6.39,7.46,1.73,3.29,2.48,6.64,2.54,10.35,.05,3.29-.37,6.58-.81,9.83Z"/>
      <path class="cls-1" d="M37.21,2.31c-.57-1.86-2.39-2.86-3.68-.93-1.05,1.58-.53,4.87-.59,6.69-.04,1.24,.31,3.51-.49,4.52-.82,1.04-.61-.76-.71-1.46-.16-1.09-.27-2.16-.36-3.26-.16-1.91,.31-7.85-2.85-7.65-3.19,.2-2.47,6.48-2.67,8.47-.11,1.08,.03,2.59-.4,3.57-.87,1.97-.86,.39-1-.81-.23-1.96-.42-3.92-.72-5.87-.27-1.75-.62-5.32-3.24-4.9-3.33,.53-2.2,7.85-2.09,9.93,.27,4.97,1.89,10.21,6.59,12.55-.06,8-.72,16-.94,24-.09,3.34-1.23,12.43,4.92,11.68,6.04-.73,4.49-9.82,4.32-13.69-.32-7.34-.7-14.68-1.26-22.01,4.25-2.21,5.76-6.27,5.79-10.94,.02-3.02,.25-6.99-.63-9.9Zm-6.26,19.73s0,0,0,0c-.02,0-.03,.02-.04,.02,0,0,0,0,0,0-.08,.04-.15,.09-.21,.16-.04,.04-.06,.08-.08,.12-.01,.02-.03,.05-.04,.07-.04,.11-.06,.24-.03,.36,.44,5.71,.75,11.43,1.04,17.15,.15,3,.3,6,.39,9.01,.07,2.11,.71,5.96-1.47,7.33-4.77,3-4.96-2.45-4.98-5.29-.01-3.05,.12-6.11,.25-9.16,.27-6.34,.72-12.69,.75-19.04,.06-.27-.03-.55-.37-.71-3.49-1.56-5.28-4.92-5.92-8.53-.36-2-1.18-7.67-.33-9.73,.43-1.03,1.26-.88,1.99-.1,.5,.54,.57,3.28,.64,3.85,.21,1.65,.32,3.32,.57,4.97,.23,1.52,.64,4.22,2.7,2.91,2.14-1.36,1.65-7.51,1.83-9.62,.05-.56,.1-1.13,.15-1.69,.2-3.8,2.07-1.65,1.95,1.75,.13,1.33,.18,2.66,.33,3.99,.14,1.28,.14,4.26,1.24,5.23,1.39,1.23,2.55-.23,2.99-1.58,.79-2.45,.13-6.14,.11-8.24-.02-1.29,.43-3.91,1.38-2.56,.26,.36,.23,2.61,.27,3.17,.45,5.94,1.36,13.05-5.08,16.13Z"/>
      <path class="cls-1" d="M5.05,36.39v-.07c0-.97-1.5-.97-1.5,0v.07c0,.97,1.5,.97,1.5,0Z"/>
      <path class="cls-1" d="M4.37,39.24c-.97,0-.97,1.5,0,1.5s.97-1.5,0-1.5Z"/>
    </g>
  </g>
</svg>