<?xml version="1.0" encoding="UTF-8"?>
<svg id="Layer_2" data-name="Layer 2" xmlns="http://www.w3.org/2000/svg" viewBox="0 0 49.42 49.81">
  <defs>
    <style>
      .cls-1 {
        fill: #4d4d4d;
      }
    </style>
  </defs>
  <g id="icon">
    <path class="cls-1" d="M46.57,.36c-2.97-1.3-5.61,1.19-7.75,3.05-1.91,1.66-3.23,3.44-4.45,5.63-1.47,2.65-3.89,7.98-7.69,6.91-.04-.01-.07,0-.1,0-.05-.01-.1-.01-.16-.01-.04,0-.08,0-.12,.02-.05,.01-.1,.03-.15,.06-.04,.02-.07,.04-.11,.07-.03,.02-.06,.03-.09,.06-.82,.84-3.06,2.43-3.02,3.86,.04,1.28,1.79,2.79,3.07,3.87-.84,.85-1.71,1.69-2.59,2.51-.35-.44-.71-.86-1.09-1.23-3.07-3.01-7.22-5-11.56-5.02-.97,0-.97,1.5,0,1.5,4.97,.02,8.5,2.55,11.4,5.9-.81,.74-1.63,1.48-2.46,2.21-1.51-1.39-3.34-2.43-5.26-2.96-6.46-.98-12.88,2.71-14.2,9.35-1.45,7.31,3.24,12.6,10.25,13.56,6.76,.93,11.62-3.94,12.78-10.53,.55-3.1-.57-6.05-2.54-8.34,.8-.71,1.59-1.42,2.38-2.13,1.18,1.5,2.26,3.1,3.31,4.7,2.5,3.82,5.85,6.08,10.57,4.75,.93-.26,.53-1.71-.4-1.45-6.42,1.81-9.09-4.52-12.29-9.1,.96-.89,1.9-1.79,2.81-2.73,.94,.96,2.6,3.26,4.09,3.2,1.37-.05,2.86-2.19,3.61-3.04,.17-.19,.28-.47,.19-.73-1.38-4.04,6.45-8.84,8.97-10.78,1.86-1.43,3.6-3.01,4.66-5.15,1.36-2.78,1.06-6.63-2.07-8ZM21.76,36.74c.7,5.54-4.26,11.85-9.84,11.61-6-.25-10.77-4.06-10.4-10.42,.38-6.46,6.33-10.65,12.54-9.71,1.7,.46,3.26,1.34,4.53,2.51-1.64,1.45-3.28,2.92-4.87,4.42-.26-.17-.54-.31-.83-.42-.08-.06-.18-.1-.3-.11-.12-.03-.23-.04-.33-.02-1.87-.14-3.68,.88-4.13,2.83-.53,2.3,.95,4.09,3.18,4.4,2.11,.3,3.62-1.19,4.04-3.22,.18-.87-.07-1.71-.55-2.41,1.58-1.49,3.2-2.94,4.83-4.38,1.13,1.38,1.91,3.06,2.14,4.91Zm-7.95,.99c.25,1.1-.73,2.68-1.91,2.66-1.34-.02-2.46-.81-2.37-2.25,.09-1.35,1.37-2.26,2.66-2.07,.14,.04,.27,.11,.4,.17-.51,.5-1.01,.99-1.51,1.5-.67,.69,.39,1.75,1.06,1.06,.49-.51,1-1,1.5-1.5,.06,.14,.12,.27,.16,.43ZM47.83,6.35c-.06,.96-.93,2.06-1.46,2.79-1.94,2.66-5.11,4.59-7.65,6.67-2,1.64-4.8,3.68-5.45,6.35-.18,.73,.19,1.81-.1,2.49-.81,1.9-2.48,1.22-3.65,.41-1.3-.91-3.2-2.71-4.1-4.07-1.04-1.59,.1-2.35,1.31-3.51,3.93,.76,6.45-3.38,8.18-6.35,1.79-3.07,3.48-5.62,6.36-7.78,.7-.52,1.7-1.47,2.57-1.7,2.73-.74,4.14,2.43,3.99,4.69Z"/>
  </g>
</svg>