<?xml version="1.0" encoding="UTF-8"?>
<svg id="Layer_2" data-name="Layer 2" xmlns="http://www.w3.org/2000/svg" viewBox="0 0 49.6 50.73">
  <defs>
    <style>
      .cls-1 {
        fill: #4d4d4d;
      }
    </style>
  </defs>
  <g id="icon">
    <path class="cls-1" d="M44.76,1.94c-10.36-6.79-17.71,5.8-21.99,13.55-1.38-2.41-1.64-5.45-4.47-6.8-2.49-1.18-4.84-.39-6.07,2.1-1.33,2.71-.63,6.14,.21,8.88,.68,2.22,1.79,4.29,1.87,6.67,.11,3.3-1.71,6.06-3.27,8.82-.72,1.34-1.35,2.49-1.53,3.58-3.96,.93-11.6,5.75-9,10.73,.98,1.88,3.2,1.39,4.59,.26,1.05-.85,1.58-2.02,2.09-3.24,.79-1.87,1.75-3.59,2.95-5.21,.22,.3,.5,.61,.85,.92,3.92,3.49,10.09,6.32,14.99,8.12,4.64,1.71,5.94-2.79,7.95-6.36,2.99-5.3,5.59-10.83,8.63-16.1,4.24-7.35,12.18-19.36,2.17-25.91ZM6.72,43.95c-.35,.7-.64,1.42-.95,2.14-.24,.56-.47,1.16-.83,1.66-.7,.99-1.19,1.36-2.35,.87-1.01-.43-1.09-.54-.94-1.57,.09-.58,.3-1.1,.61-1.59,.53-.85,1.26-1.62,2-2.29,1.36-1.22,2.89-2.13,4.6-2.68-.81,1.09-1.54,2.23-2.15,3.45Zm10.19,.2c-1.66-.93-3.8-1.93-5.07-3.37-.83-.94-.94-1.69-.69-2.48,5.9,4.11,11.66,8.08,18.81,9.57-.47,.47-.95,.82-1.45,1.01-2.89,1.06-8.91-3.2-11.6-4.72Zm23.84-16.09c-1.99,3.52-3.81,7.13-5.69,10.71-.95,1.81-2.36,5.42-4.06,7.83-.07-.05-.15-.09-.26-.11-7.25-1.41-13.02-5.44-18.95-9.58,.17-.31,.37-.64,.56-1,1.49-2.64,3.23-5.31,3.45-8.42,.22-3.08-1.18-5.71-2.01-8.59-.41-1.42-.77-2.92-.76-4.42,0-3.76,3.23-6.54,6.33-2.99,1.43,1.63,1.6,4.23,2.95,5.95,.3,.38,.97,.23,1.18-.15,3.81-6.91,10.49-20.59,20.52-14.06,9.5,6.18,.54,18.1-3.25,24.83Z"/>
  </g>
</svg>