<?xml version="1.0" encoding="UTF-8"?>
<svg id="Layer_2" data-name="Layer 2" xmlns="http://www.w3.org/2000/svg" viewBox="0 0 35.24 58.57">
  <defs>
    <style>
      .cls-1 {
        fill: #4d4d4d;
      }
    </style>
  </defs>
  <g id="icon">
    <g>
      <path class="cls-1" d="M33.39,54.29l-3.15-38.04c-.02-.19-.1-.33-.2-.44,.76-.22,1.37-.59,1.7-1.24,1.04-2.08-.62-2.82-2.74-3.04,0-.05,.01-.09,0-.14-.52-2.87-.57-7-1.97-9.56-1.59-2.9-8.02-1.46-10.7-1.46-2.42,0-7.22-1-8.6,1.49-1.45,2.6-1.45,6.72-1.7,9.71-.15,0-.3,.01-.45,.02-.04,0-.06,.02-.09,.02-.04,0-.07,0-.11,0-1.35,.3-2.67,1.44-1.87,2.95,.34,.64,1,1,1.82,1.21-1.15,12.86-2.3,25.71-3.45,38.57-1.17,.35-2.27,1.07-1.73,2.46,.91,2.37,6.24,1.54,7.9,1.57,6.24,.1,12.49,.14,18.73,.05,1.9-.03,7.69,.98,8.4-1.82,.31-1.21-.49-1.91-1.79-2.31ZM28.92,14.31c-.39,.25-2.51,.07-2.97,.08-1.48,.03-2.95,.04-4.43,.05-2.73,.01-5.46,0-8.19-.03-1.11-.01-2.23-.03-3.34-.05-.69-.01-1.38-.03-2.08-.04-.99,.21-3.24-.54-2.14-1.25,6.89-.38,13.84-.02,20.74,.02,.65,0,4.85-.37,2.4,1.22ZM8.55,4.42c.53-2.34,1.46-2.43,3.68-2.5,1.61-.05,3.23-.05,4.84-.06,2.1-.01,4.37-.32,6.47-.08,2.26,.25,2.18,.8,2.62,2.82,.49,2.27,.92,4.56,1.33,6.84-1.66-.02-3.29,.14-3.93,.13-5.33-.05-10.7-.27-16.03-.08,.22-2.37,.49-4.76,1.02-7.08Zm2.54,11.47c4.42,.07,8.84,.09,13.26,.03,1.03-.01,2.83,.23,4.43,.1-.02,.07-.03,.14-.03,.23,1.04,12.58,2.09,25.16,3.13,37.73-3.02-.38-7.15,.11-8.25,.1-6.73-.05-13.49-.25-20.22,.01,1.14-12.7,2.27-25.41,3.41-38.11,1.6,.1,3.33-.11,4.28-.1ZM29.6,56.86c-1.76,.33-3.88,.07-5.68,.08-3.36,.03-6.71,.02-10.07,0-1.94-.02-3.88-.04-5.81-.07-.97-.01-1.95-.03-2.92-.05-1.19,.4-3.34-.46-2.11-1.22,8.09-.33,16.22-.04,24.31,0,1.31,0,3.11-.33,4.38,0,2.18,.57-1.31,1.11-2.11,1.25Z"/>
      <path class="cls-1" d="M12.89,22.12c1.05-.62,1.29-1.97,.91-3.05-.29-.82-1.06-1.57-1.98-1.32-.04,.01-.06,.03-.1,.05-.01,0-.02,0-.04,0-1.15,.51-1.53,1.97-1.13,3.09,.34,.97,1.32,1.83,2.35,1.23Zm-.44-1.07c-.48,.41-.82-.31-.91-.74-.12-.58,.09-1.18,.61-1.47,.26-.02,.47,.33,.55,.53,.23,.54,.22,1.27-.26,1.68Z"/>
      <path class="cls-1" d="M18.38,22.12c1.05-.62,1.29-1.97,.91-3.05-.29-.82-1.06-1.57-1.98-1.32-.04,.01-.06,.03-.1,.05-.01,0-.02,0-.04,0-1.15,.51-1.53,1.97-1.13,3.09,.34,.97,1.32,1.83,2.35,1.23Zm-.44-1.07c-.48,.41-.82-.31-.91-.74-.12-.58,.09-1.18,.61-1.47,.26-.02,.47,.33,.56,.53,.23,.54,.22,1.27-.26,1.68Z"/>
      <path class="cls-1" d="M23.87,22.12c1.05-.62,1.29-1.97,.91-3.05-.29-.82-1.06-1.57-1.98-1.32-.04,.01-.06,.03-.1,.05-.01,0-.02,0-.04,0-1.15,.51-1.53,1.97-1.13,3.09,.34,.97,1.32,1.83,2.35,1.23Zm-.44-1.07c-.48,.41-.82-.31-.91-.74-.12-.58,.09-1.18,.61-1.47,.26-.02,.47,.33,.55,.53,.23,.54,.22,1.27-.26,1.68Z"/>
      <path class="cls-1" d="M10.15,28.12c1.05-.62,1.29-1.97,.91-3.05-.29-.82-1.06-1.57-1.98-1.32-.04,.01-.06,.03-.1,.05-.01,0-.02,0-.04,0-1.15,.51-1.53,1.97-1.13,3.09,.34,.97,1.32,1.83,2.35,1.23Zm-.44-1.07c-.48,.41-.82-.31-.91-.74-.12-.58,.09-1.18,.61-1.47,.26-.02,.47,.33,.55,.53,.23,.54,.22,1.27-.26,1.68Z"/>
      <path class="cls-1" d="M13.29,26.9c.34,.97,1.32,1.83,2.35,1.23,1.05-.62,1.29-1.97,.91-3.05-.29-.82-1.06-1.57-1.98-1.32-.04,.01-.06,.03-.1,.05-.01,0-.02,0-.04,0-1.15,.51-1.53,1.97-1.13,3.09Zm1.91,.15c-.48,.41-.82-.31-.91-.74-.12-.58,.09-1.18,.61-1.47,.26-.02,.47,.33,.56,.53,.23,.54,.22,1.27-.26,1.68Z"/>
      <path class="cls-1" d="M18.78,26.9c.34,.97,1.32,1.83,2.35,1.23,1.05-.62,1.29-1.97,.91-3.05-.29-.82-1.06-1.57-1.98-1.32-.04,.01-.06,.03-.1,.05-.01,0-.02,0-.04,0-1.15,.51-1.53,1.97-1.13,3.09Zm1.91,.15c-.48,.41-.82-.31-.91-.74-.12-.58,.09-1.18,.61-1.47,.26-.02,.47,.33,.56,.53,.23,.54,.22,1.27-.26,1.68Z"/>
      <path class="cls-1" d="M24.27,26.9c.34,.97,1.32,1.83,2.35,1.23,1.05-.62,1.29-1.97,.91-3.05-.29-.82-1.06-1.57-1.98-1.32-.04,.01-.06,.03-.1,.05-.01,0-.02,0-.04,0-1.15,.51-1.53,1.97-1.13,3.09Zm1.91,.15c-.48,.41-.82-.31-.91-.74-.12-.58,.09-1.18,.61-1.47,.26-.02,.47,.33,.55,.53,.23,.54,.22,1.27-.26,1.68Z"/>
      <path class="cls-1" d="M11.81,29.76s-.06,.03-.1,.05c-.01,0-.02,0-.04,0-1.15,.51-1.53,1.97-1.13,3.09,.34,.97,1.32,1.83,2.35,1.23,1.05-.62,1.29-1.97,.91-3.05-.29-.82-1.06-1.57-1.98-1.32Zm.64,3.3c-.48,.41-.82-.31-.91-.74-.12-.58,.09-1.18,.61-1.47,.26-.02,.47,.33,.55,.53,.23,.54,.22,1.27-.26,1.68Z"/>
      <path class="cls-1" d="M17.3,29.76s-.06,.03-.1,.05c-.01,0-.02,0-.04,0-1.15,.51-1.53,1.97-1.13,3.09,.34,.97,1.32,1.83,2.35,1.23,1.05-.62,1.29-1.97,.91-3.05-.29-.82-1.06-1.57-1.98-1.32Zm.64,3.3c-.48,.41-.82-.31-.91-.74-.12-.58,.09-1.18,.61-1.47,.26-.02,.47,.33,.56,.53,.23,.54,.22,1.27-.26,1.68Z"/>
      <path class="cls-1" d="M23.87,34.13c1.05-.62,1.29-1.97,.91-3.05-.29-.82-1.06-1.57-1.98-1.32-.04,.01-.06,.03-.1,.05-.01,0-.02,0-.04,0-1.15,.51-1.53,1.97-1.13,3.09,.34,.97,1.32,1.83,2.35,1.23Zm-.44-1.07c-.48,.41-.82-.31-.91-.74-.12-.58,.09-1.18,.61-1.47,.26-.02,.47,.33,.55,.53,.23,.54,.22,1.27-.26,1.68Z"/>
      <path class="cls-1" d="M10.15,40.13c1.05-.62,1.29-1.97,.91-3.05-.29-.82-1.06-1.57-1.98-1.32-.04,.01-.06,.03-.1,.05-.01,0-.02,0-.04,0-1.15,.51-1.53,1.97-1.13,3.09,.34,.97,1.32,1.83,2.35,1.23Zm-.44-1.07c-.48,.41-.82-.31-.91-.74-.12-.58,.09-1.18,.61-1.47,.26-.02,.47,.33,.55,.53,.23,.54,.22,1.27-.26,1.68Z"/>
      <path class="cls-1" d="M14.56,35.76s-.06,.03-.1,.05c-.01,0-.02,0-.04,0-1.15,.51-1.53,1.97-1.13,3.09,.34,.97,1.32,1.83,2.35,1.23,1.05-.62,1.29-1.97,.91-3.05-.29-.82-1.06-1.57-1.98-1.32Zm.64,3.3c-.48,.41-.82-.31-.91-.74-.12-.58,.09-1.18,.61-1.47,.26-.02,.47,.33,.56,.53,.23,.54,.22,1.27-.26,1.68Z"/>
      <path class="cls-1" d="M20.05,35.76s-.06,.03-.1,.05c-.01,0-.02,0-.04,0-1.15,.51-1.53,1.97-1.13,3.09,.34,.97,1.32,1.83,2.35,1.23,1.05-.62,1.29-1.97,.91-3.05-.29-.82-1.06-1.57-1.98-1.32Zm.64,3.3c-.48,.41-.82-.31-.91-.74-.12-.58,.09-1.18,.61-1.47,.26-.02,.47,.33,.56,.53,.23,.54,.22,1.27-.26,1.68Z"/>
      <path class="cls-1" d="M25.54,35.76s-.06,.03-.1,.05c-.01,0-.02,0-.04,0-1.15,.51-1.53,1.97-1.13,3.09,.34,.97,1.32,1.83,2.35,1.23,1.05-.62,1.29-1.97,.91-3.05-.29-.82-1.06-1.57-1.98-1.32Zm.64,3.3c-.48,.41-.82-.31-.91-.74-.12-.58,.09-1.18,.61-1.47,.26-.02,.47,.33,.55,.53,.23,.54,.22,1.27-.26,1.68Z"/>
      <path class="cls-1" d="M13.8,43.09c-.29-.82-1.06-1.57-1.98-1.32-.04,.01-.06,.03-.1,.05-.01,0-.02,0-.04,0-1.15,.51-1.53,1.97-1.13,3.09,.34,.97,1.32,1.83,2.35,1.23,1.05-.62,1.29-1.97,.91-3.05Zm-1.34,1.98c-.48,.41-.82-.31-.91-.74-.12-.58,.09-1.18,.61-1.47,.26-.02,.47,.33,.55,.53,.23,.54,.22,1.27-.26,1.68Z"/>
      <path class="cls-1" d="M19.29,43.09c-.29-.82-1.06-1.57-1.98-1.32-.04,.01-.06,.03-.1,.05-.01,0-.02,0-.04,0-1.15,.51-1.53,1.97-1.13,3.09,.34,.97,1.32,1.83,2.35,1.23,1.05-.62,1.29-1.97,.91-3.05Zm-1.34,1.98c-.48,.41-.82-.31-.91-.74-.12-.58,.09-1.18,.61-1.47,.26-.02,.47,.33,.56,.53,.23,.54,.22,1.27-.26,1.68Z"/>
      <path class="cls-1" d="M24.78,43.09c-.29-.82-1.06-1.57-1.98-1.32-.04,.01-.06,.03-.1,.05-.01,0-.02,0-.04,0-1.15,.51-1.53,1.97-1.13,3.09,.34,.97,1.32,1.83,2.35,1.23,1.05-.62,1.29-1.97,.91-3.05Zm-1.34,1.98c-.48,.41-.82-.31-.91-.74-.12-.58,.09-1.18,.61-1.47,.26-.02,.47,.33,.55,.53,.23,.54,.22,1.27-.26,1.68Z"/>
      <path class="cls-1" d="M10.15,52.14c1.05-.62,1.29-1.97,.91-3.05-.29-.82-1.06-1.57-1.98-1.32-.04,.01-.06,.03-.1,.05-.01,0-.02,0-.04,0-1.15,.51-1.53,1.97-1.13,3.09,.34,.97,1.32,1.83,2.35,1.23Zm-.44-1.07c-.48,.41-.82-.31-.91-.74-.12-.58,.09-1.18,.61-1.47,.26-.02,.47,.33,.55,.53,.23,.54,.22,1.27-.26,1.68Z"/>
      <path class="cls-1" d="M14.56,47.77s-.06,.03-.1,.05c-.01,0-.02,0-.04,0-1.15,.51-1.53,1.97-1.13,3.09,.34,.97,1.32,1.83,2.35,1.23,1.05-.62,1.29-1.97,.91-3.05-.29-.82-1.06-1.57-1.98-1.32Zm.64,3.3c-.48,.41-.82-.31-.91-.74-.12-.58,.09-1.18,.61-1.47,.26-.02,.47,.33,.55,.53,.23,.54,.22,1.27-.26,1.68Z"/>
      <path class="cls-1" d="M20.05,47.77s-.06,.03-.1,.05c-.01,0-.02,0-.04,0-1.15,.51-1.53,1.97-1.13,3.09,.34,.97,1.32,1.83,2.35,1.23,1.05-.62,1.29-1.97,.91-3.05-.29-.82-1.06-1.57-1.98-1.32Zm.64,3.3c-.48,.41-.82-.31-.91-.74-.12-.58,.09-1.18,.61-1.47,.26-.02,.47,.33,.55,.53,.23,.54,.22,1.27-.26,1.68Z"/>
      <path class="cls-1" d="M25.54,47.77s-.06,.03-.1,.05c-.01,0-.02,0-.04,0-1.15,.51-1.53,1.97-1.13,3.09,.34,.97,1.32,1.83,2.35,1.23,1.05-.62,1.29-1.97,.91-3.05-.29-.82-1.06-1.57-1.98-1.32Zm.64,3.3c-.48,.41-.82-.31-.91-.74-.12-.58,.09-1.18,.61-1.47,.26-.02,.47,.33,.55,.53,.23,.54,.22,1.27-.26,1.68Z"/>
    </g>
  </g>
</svg>