<?xml version="1.0" encoding="UTF-8"?>
<svg id="Layer_2" data-name="Layer 2" xmlns="http://www.w3.org/2000/svg" viewBox="0 0 50.66 50.5">
  <defs>
    <style>
      .cls-1 {
        fill: #4d4d4d;
      }
    </style>
  </defs>
  <g id="icon">
    <g>
      <path class="cls-1" d="M50.54,10.9c-1.27-6.28-9.97-8.84-14.84-5.32C33.47,2.15,29.87-.17,25.48,0c-4.07,.16-8.14,2.78-10.09,6.41C9.25,2.42,.57,5.44,.03,13.13c-.24,3.39,1.19,5.84,4.29,7.2,2.06,.9,4.76,1.54,6.83,.6-1.76,8.86-3.6,17.69-4.86,26.64-.05,.38,.09,.83,.52,.92,11.9,2.56,25.2,2.71,37.14,.28,.3-.06,.57-.41,.55-.72-.69-9.47-2.85-18.7-4.6-28.01,5.16,1.08,11.74-3.64,10.63-9.14Zm-8.27,30.18c.12,.85,.24,1.7,.34,2.56,.08,.76,.74,3.22,.2,3.84-.39,.45-2.68,.44-3.28,.52-10.36,1.36-21.41,1.29-31.67-.83,.27-1.89,.57-3.78,.89-5.66,11.27,1.09,22.22,1.35,33.44-.4,.03,0,.05-.02,.08-.03Zm-3.13-22.83c-.58-.24-1.01,.43-.92,.92,1.01,5.53,2.19,11.02,3.2,16.54,.24,1.32,.46,2.64,.67,3.96-.09-.02-.19-.03-.3-.01-11,1.72-21.75,1.42-32.79,.37,1.21-6.93,2.64-13.82,4-20.73,.13-.65-.75-1.38-1.25-.73-1.48,1.88-4.18,1.39-6.18,.65-3.55-1.3-4.69-4.4-3.69-7.96,1.51-5.39,8.6-6.29,12.82-3.5,.03,.02,.06,.02,.09,.04-.19,.51-.34,1.04-.44,1.57-.17,.94,1.28,1.35,1.45,.4,.77-4.26,4.92-7.79,9.2-8.17,5.34-.47,9.41,3.09,10.97,7.99,.29,.92,1.74,.52,1.45-.4-.26-.81-.59-1.58-.97-2.32,4.6-3.67,13.87,.31,12.41,6.66-.77,3.37-6.44,6.06-9.7,4.72Z"/>
      <path class="cls-1" d="M22.41,4.15c-2.36,.72-4.17,2.6-4.77,4.99-.23,.94,1.21,1.34,1.45,.4,.17-.67,.46-1.29,.83-1.84l1.13-1.19c.51-.4,1.1-.71,1.75-.91,.92-.28,.53-1.73-.4-1.45Z"/>
      <path class="cls-1" d="M26.03,3.47c-.97,0-.97,1.5,0,1.5s.97-1.5,0-1.5Z"/>
    </g>
  </g>
</svg>