<?xml version="1.0" encoding="UTF-8"?>
<svg id="Layer_2" data-name="Layer 2" xmlns="http://www.w3.org/2000/svg" viewBox="0 0 23.77 58.68">
  <defs>
    <style>
      .cls-1 {
        fill: #4d4d4d;
      }
    </style>
  </defs>
  <g id="icon">
    <g>
      <path class="cls-1" d="M23.68,37.95c.02-6.25-.05-12.84-1.14-19-.29-1.62-1.2-2.35-2.4-2.67-.05-1.46,.18-3.84-.81-4.86-.62-.64-2.04-.8-3.54-.78-.88-2.68-1.42-5.47-2.19-8.18-.51-1.78-.91-2.82-3.02-2.33-1.59,.38-1.46,2.65-1.67,3.97-.35,2.23-.66,4.46-.91,6.7-1.71-.03-3.48,.08-4.41,.81-1.27,.99-.56,3.6-.53,5.01,0,.03,.01,.05,.02,.08-.34,.09-.68,.19-.99,.31-.12,.03-.25,.08-.36,.2C-.75,19.82,.17,26.14,.15,29.47c-.05,5.59,.1,11.18,.34,16.77,.13,3.02-.32,7.02,.58,9.94,.54,1.76,2.15,1.85,3.9,2.07,4.34,.57,8.85,.5,13.2,.23,2.64-.16,4.57,.2,5.03-2.71,.89-5.74,.47-12.03,.49-17.83ZM10.08,6.22c.14-.94,.28-1.87,.44-2.81,.06-.32,.11-1.61,.35-1.8,1.16-.91,1.84,3.4,1.99,3.96,.43,1.72,.84,3.44,1.38,5.13-1.12,.08-2.15,.2-2.75,.21-.53,.01-1.23-.02-2-.06,.17-1.55,.37-3.09,.6-4.63Zm-3.92,6.4c1.51-.45,3.77-.17,5.32-.21,1.5-.04,3.43-.34,4.9,.01,2.13,.51,2.13,1.86,2.24,3.64-1.18-.05-2.46,.07-3.64,.06-3.12-.01-7.06-.34-10.44,.24-.06-1.66-.4-3.14,1.63-3.74ZM2.03,47.45c0-.13,0-.28,0-.4-.21-4.79-.35-9.58-.38-14.37,0-.69,0-1.38,0-2.07,2.82-.25,6.51-1.06,9.1-.46,3.81,.88,3.62,6.43,3.83,9.52,.09,1.37,.46,3.01,.29,4.37-.29,2.34-.85,2.67-3.19,2.87-3.21,.27-6.43,.44-9.65,.55Zm19.59,8.75c-.52,.81-2.05,.69-3.14,.76-3.51,.24-7.07,.25-10.58,.05-1.34-.08-3.24,.04-4.48-.54-1.08-.5-.56,.08-.9-.93-.63-1.83-.51-4.38-.47-6.59,2.54-.09,5.07-.21,7.6-.39,1.32-.1,5.15,.22,6.25-.73,1.76-1.52,.27-7.38,.11-9.44-.2-2.52-.28-7.34-2.4-9.07-1.01-.83-2.33-.69-3.54-.64-2.8,.12-5.6,.29-8.4,.45,.01-1.19,.04-2.38,.07-3.57,.06-1.83-.31-5.62,.96-7.17,2.59-.91,6-.64,8.68-.71,1.71-.05,3.42-.07,5.12-.03,.9,.02,3.63-.28,4.32,.33,1.06,.96,.77,6.12,.89,7.58,.22,2.74,.38,5.49,.45,8.24,.12,4.93-.1,9.84-.12,14.77,0,1.9,.63,6.03-.41,7.64Z"/>
      <path class="cls-1" d="M15.17,19.51c-.96,.03-.97,1.53,0,1.5,1.63-.04,2.85,.22,3.18,2.04,.25,1.39,.32,2.82,.36,4.24,.02,.96,1.52,.97,1.5,0-.05-1.83,.04-4.32-.83-6.01-.82-1.61-2.58-1.81-4.21-1.77Z"/>
      <path class="cls-1" d="M11.78,20.31v.06c0,.97,1.5,.97,1.5,0v-.06c0-.97-1.5-.97-1.5,0Z"/>
    </g>
  </g>
</svg>