<?xml version="1.0" encoding="UTF-8"?>
<svg id="Layer_2" data-name="Layer 2" xmlns="http://www.w3.org/2000/svg" viewBox="0 0 48.57 48.55">
  <defs>
    <style>
      .cls-1 {
        fill: #4d4d4d;
      }
    </style>
  </defs>
  <g id="icon">
    <g>
      <path class="cls-1" d="M44.12,23.55c1.42-4.21,1.86-10.93,.22-14.96C41.81,2.39,34.16,.14,28.14,0c-6.27-.14-14.45,1.48-18.04,7.26-2.87,4.62-1.42,12.44,.02,17.38-.66,.91-1.2,1.87-1.67,2.88-1.11-.52-2.52-1.18-3.65-1.03-1.39,.19-2.91,1.07-4.23,1.56-.41,.15-.76,.68-.45,1.1,2.09,2.82,4.2,5.64,6.11,8.59,.04,.07,.1,.11,.15,.15,.01,1.44,.13,2.88,.33,4.28,.32,2.28,1.36,3.89,3.48,4.92,1.89,.93,4.07,1.15,6.15,1.26,3.8,.2,7.69,.25,11.49,.09,4.9-.16,10.19,.31,15.04-.54,4.87-.85,5.58-5.09,5.69-9.3,.15-5.45-1.29-10.88-4.44-15.06ZM10.77,9.38C13.08,2.97,22.27,1.37,28.14,1.51c5.5,.13,13.18,2.22,14.99,8.27,1.03,3.45,.85,8.62-.16,12.39-.54-.59-1.12-1.14-1.73-1.66,.6-4.02,.73-8.86-1.99-12.2-2.35-2.88-6.43-3.88-10-4.01-4.52-.16-10.8,.72-14.1,4.07-3.32,3.38-2.73,8.63-1.93,12.88,0,.05,.03,.07,.05,.11-.08,.06-.15,.12-.23,.18-.64,.52-1.21,1.09-1.75,1.68-1.14-4.26-1.97-9.81-.51-13.85Zm3.8,11c-.67-3.73-1.15-8.5,1.95-11.26,3.01-2.68,8.83-3.46,12.72-3.31,2.76,.1,5.78,.75,7.92,2.57,3.11,2.65,3.2,7.28,2.72,11.09-1.02-.71-2.13-1.35-3.34-1.87-1.98-.85-3.96-1.37-5.93-1.62,.99-2.24-1.3-4.87-3.9-4.6-1.5,.16-2.59,1.13-2.94,2.6-.18,.73-.12,1.55,.22,2.22-3.32,.65-6.5,2.09-9.42,4.18Zm11.17-4.45s0,0,0,0c-.59-.29-.64-1.1-.48-1.68,.25-.89,.87-1.37,1.8-1.39,1.57-.04,3.01,1.68,1.87,2.98-1.07-.05-2.13-.02-3.18,.1Zm-7.84,4.03c6.2-3.94,13.91-3.45,19.82,.1-6.76,3.02-13.87,3.78-20.64,.44,.27-.18,.55-.36,.82-.53ZM1.97,29.14c.9-.32,1.81-.64,2.7-1,.14-.06,.3-.13,.45-.18,.06,.02,.2,.04,.36,.1,.79,.29,1.61,.53,2.39,.86-.77,2.06-1.22,4.25-1.39,6.49-1.44-2.13-2.97-4.2-4.5-6.26Zm41.45,17.15c-2.14,.69-5.2,.41-7.44,.47-2.71,.07-5.43,.11-8.14,.19-2.97,.13-5.92,0-8.89-.05-2.72-.05-5.83,.13-8.3-1.23-2.66-1.47-2.56-4.02-2.65-6.71-.15-4.47,.33-9.25,2.94-13.02,1.26-1.82,2.93-3.23,4.72-4.49,7.72,4.15,15.82,3.22,23.53-.43,1.21,.88,2.32,1.89,3.3,3.03,.05,.18,.17,.31,.33,.4,1.29,1.59,2.34,3.39,3.04,5.39,1.51,4.27,3.11,14.66-2.45,16.47Z"/>
      <path class="cls-1" d="M43.75,38.7c.64,1.76,.05,3.57-1.63,4.49-1.58,.86-3.48,.74-5.22,.66-.97-.04-.96,1.46,0,1.5,2.37,.11,4.96,.12,6.88-1.49,1.63-1.36,2.12-3.6,1.41-5.56-.33-.9-1.78-.51-1.45,.4Z"/>
      <path class="cls-1" d="M43.4,36.8c.97,0,.97-1.5,0-1.5s-.97,1.5,0,1.5Z"/>
    </g>
  </g>
</svg>