<?xml version="1.0" encoding="UTF-8"?>
<svg id="Layer_2" data-name="Layer 2" xmlns="http://www.w3.org/2000/svg" viewBox="0 0 50.71 48.4">
  <defs>
    <style>
      .cls-1 {
        fill: #4d4d4d;
      }
    </style>
  </defs>
  <g id="icon">
    <g>
      <path class="cls-1" d="M49.78,40.9c-1.44-2.53-3.81-4.55-5.85-6.59-3.1-3.1-6.19-6.21-9.28-9.32C26.85,16.68,18.95,8.45,11.06,.22c-.27-.29-.61-.27-.87-.11-.06,.03-.13,.06-.19,.11C6.75,3.06,2.7,6.12,.53,9.92c-1.44,2.52,.36,4.46,1.9,6.54,5.57,7.52,12.25,15.33,19.66,21.11,.32,.25,.74,.31,1.06,0,2.38-2.28,4.67-4.65,6.98-7,2.74,4.23,5.64,8.37,8.69,12.37,2.3,3.01,4.35,6.01,8.64,5.39,3.73-.54,3.87-4.69,2.32-7.42Zm-27.79-5.34c-1.14-.82-2.16-1.95-3.16-2.93-5.23-5.11-10.28-10.57-14.7-16.4-.76-1-1.72-2.08-2.24-3.24-.49-1.09-.34-1.82,.14-2.6,5.96,9.07,13.99,17.03,21.63,24.68-.66,.82-.78,1.13-1.67,.49Zm2.67-1.6c-7.67-7.68-15.78-15.69-21.68-24.83,2.21-2.69,4.88-5.04,7.51-7.34,3.91,4.08,7.8,8.16,11.69,12.25,2.37,2.49,4.75,4.98,7.12,7.48,.93,.98,1.86,1.95,2.78,2.93,.27,.29,.75,.64,.94,.99,.04,.08,.08,.13,.11,.17-.1,.02-.24,.1-.44,.27-2.83,2.5-5.36,5.39-8.02,8.08Zm18.37,11.75c-2.49-2.05-4.35-5.41-6.21-8.01-1.93-2.7-3.82-5.44-5.62-8.23,.96-.97,1.93-1.93,2.91-2.89,3.5,3.51,7.02,7.01,10.51,10.54,1.62,1.64,3.88,3.57,4.47,5.89,1.02,3.97-3.46,4.86-6.07,2.71Z"/>
      <path class="cls-1" d="M34.87,29.31c-.68-.68-1.74,.38-1.06,1.06,.02,.02,.03,.03,.05,.05,.68,.68,1.74-.38,1.06-1.06-.02-.02-.03-.03-.05-.05Z"/>
      <path class="cls-1" d="M37.01,31.86c-.97,0-.97,1.5,0,1.5s.97-1.5,0-1.5Z"/>
      <path class="cls-1" d="M10.6,4c-.97,0-.97,1.5,0,1.5s.97-1.5,0-1.5Z"/>
      <path class="cls-1" d="M13.1,6.49c-.63-.73-1.69,.33-1.06,1.06,2.14,2.49,4.65,4.6,6.82,7.05,.64,.73,1.7-.34,1.06-1.06-2.16-2.46-4.68-4.56-6.82-7.05Z"/>
    </g>
  </g>
</svg>