<?xml version="1.0" encoding="UTF-8"?>
<svg id="Layer_2" data-name="Layer 2" xmlns="http://www.w3.org/2000/svg" viewBox="0 0 60.25 46.32">
  <defs>
    <style>
      .cls-1 {
        fill: #4d4d4d;
      }
    </style>
  </defs>
  <g id="icon">
    <g>
      <path class="cls-1" d="M54.19,6.66c-.08-.06-.18-.1-.3-.11-.12-.03-.23-.04-.33-.02-2.14-.17-4.21,.99-4.71,3.2-.59,2.61,1.09,4.62,3.61,4.97,2.39,.33,4.09-1.37,4.55-3.66,.39-1.95-1.07-3.74-2.82-4.38Zm-1.08,6.61c-1.62-.03-2.99-1-2.88-2.75,.1-1.66,1.67-2.77,3.26-2.53,1,.28,1.73,1,1.96,2.02,.32,1.36-.88,3.28-2.34,3.26Z"/>
      <path class="cls-1" d="M54.19,18.55c-.08-.06-.18-.1-.3-.11-.12-.03-.23-.04-.33-.02-2.14-.17-4.21,.99-4.71,3.2-.59,2.61,1.09,4.62,3.61,4.97,2.39,.33,4.09-1.37,4.55-3.66,.39-1.95-1.07-3.74-2.82-4.38Zm-1.08,6.61c-1.62-.03-2.99-1-2.88-2.74,.1-1.66,1.67-2.77,3.26-2.53,1,.28,1.73,1,1.96,2.02,.32,1.36-.88,3.28-2.34,3.26Z"/>
      <path class="cls-1" d="M54.19,30.43c-.08-.06-.18-.1-.3-.11-.12-.03-.23-.04-.33-.02-2.14-.17-4.21,.99-4.71,3.2-.59,2.61,1.09,4.62,3.61,4.97,2.39,.33,4.09-1.37,4.55-3.66,.39-1.95-1.07-3.74-2.82-4.38Zm-1.08,6.61c-1.62-.03-2.99-1-2.88-2.74,.1-1.66,1.67-2.77,3.26-2.53,1,.28,1.73,1,1.96,2.02,.32,1.36-.88,3.28-2.34,3.26Z"/>
      <path class="cls-1" d="M59.92,14.05c-.02-5.5,1.3-12.52-5.48-13.72-3.55-.63-7.46-.17-11.05-.14-4.39,.04-8.77,.18-13.16,.23-7.64,.05-15.3-.24-22.94,.11C.8,.82,.21,4.06,.13,9.89c-.1,7.66,.1,15.32-.08,22.98-.1,4.14-.49,9.32,4.59,10.5,1.59,.37,3.29,.46,4.99,.45,0,.24,.04,.26,.08,.8,.03,.47,.07,.95,.42,1.3,.53,.54,1.51,.39,2.19,.38,.85-.01,1.89,.13,2.7-.16,1.28-.46,.96-1.39,.91-2.44,3.8-.02,7.59,.03,11.39,0,5.84-.04,11.71-.18,17.56-.17-.05,.55,.01,.4,.06,1.08,.03,.47,.07,.95,.42,1.3,.53,.54,1.51,.39,2.19,.38,.85-.01,1.89,.13,2.7-.16,1.28-.47,.96-1.4,.91-2.46,0-.02-.01-.04-.02-.06,4.1,.08,7.99-.11,8.62-5.09,1-7.98,.19-16.43,.16-24.46ZM13.89,44.78c-.49,.02-.98,0-1.47,.02-.21,0-.91,.11-1.22,.04-.02-.04-.04-.1-.05-.16-.03-.39-.04-.6-.02-.88,1.12-.03,2.23-.08,3.3-.09,.02,.44,.02,.45,.02,.91,0,.21,.1,.15-.55,.18Zm35.23,0c-.49,.02-.98,0-1.47,.02-.21,0-.91,.11-1.22,.04-.02-.04-.04-.1-.05-.16-.04-.49-.04-.71,0-1.13,1.1,0,2.19,.01,3.29,.04,0,.03-.02,.06-.01,.09,.02,.47,.02,.46,.02,.93,0,.21,.1,.15-.55,.18Zm9.19-6.8c-.87,2.75-2.47,4.11-5.14,4.22-1.29,.05-2.6-.11-3.9-.13-11.52-.14-23.08,0-34.59,.12-2.6,.03-5.54,.37-8.1-.1-3.1-.57-4.62-1.83-5.04-4.96-.14-1.02-.03-2.14-.01-3.18,.1-5.34,.17-10.67,.12-16.02-.03-3.39-.07-6.78,.03-10.17,.01-.46-.08-1.23,.06-1.69,.7-2.33,2.6-3.86,4.85-4.02,1.64-.12,3.31-.12,4.96-.14,6.23-.11,12.46,.05,18.69,0,5.34-.06,10.68-.23,16.03-.23,2.55,0,5.37-.43,7.87,.16,3.09,.73,3.91,2.52,4.12,5.4,.12,1.58,.14,3.16,.16,4.75,.08,5.82,.08,11.64,.12,17.46,.02,2.53,.55,6.11-.21,8.53Z"/>
      <path class="cls-1" d="M45.47,5.67c-13.23-.02-26.46-.46-39.68-.04-.16,0-.28,.06-.39,.13-.21,.11-.37,.31-.36,.62,.13,10.62,.07,21.25,.3,31.87,0,.43,.34,.71,.75,.75,13.03,1.24,26.11,.08,39.16,.28,.41,0,.74-.35,.75-.75,.19-10.7-.16-21.4,.23-32.1,.01-.41-.36-.75-.75-.75Zm-1.9,32.11c-1.18,.14-2.43,.04-3.62,.06-3.61,.07-7.22,.13-10.82,.17-4.02,.04-8.03,.05-12.05-.01-1.79-.03-3.58-.07-5.38-.14-.81-.03-4.42,.28-4.96-.3-.65-.7-.02-6.29-.03-7.32-.03-2.75-.05-5.5-.06-8.25-.03-4.96-.05-9.92-.1-14.88,11.01-.32,22.02-.05,33.02,.03,1.07,0,2.96-.36,3.95,.02,1.42,.54,1.13,1.16,1.09,2.78-.07,2.98-.09,5.96-.09,8.94,0,2.74,.02,5.48,.04,8.21,.01,2.89-.57,6.4-.03,9.22,.34,1.8,.67,1.28-.96,1.47Z"/>
      <path class="cls-1" d="M14.38,8.55c-1.62,.12-4.25-.21-5.31,1.33-.52,.75-.53,1.66-.5,2.53,.05,1.47,.11,2.93,.08,4.4-.02,.97,1.48,.97,1.5,0,.04-1.58-.32-3.4-.09-4.94,.09-.62,.47-1.33,1.02-1.56,.29-.12,.73-.08,1.04-.1,.75-.06,1.51-.12,2.26-.17,.96-.07,.96-1.57,0-1.5Z"/>
      <path class="cls-1" d="M17.35,8.48c-.97,0-.97,1.5,0,1.5s.97-1.5,0-1.5Z"/>
    </g>
  </g>
</svg>