<?xml version="1.0" encoding="UTF-8"?>
<svg id="Layer_2" data-name="Layer 2" xmlns="http://www.w3.org/2000/svg" viewBox="0 0 59.18 34.43">
  <defs>
    <style>
      .cls-1 {
        fill: #4d4d4d;
      }
    </style>
  </defs>
  <g id="icon">
    <g>
      <path class="cls-1" d="M57.21,3.72c-1.94-.59-6.23,1.92-7.96,2.55-3.23,1.18-6.41,2.44-9.51,3.93-.12,.06-.39,.3-.45,.39-.53,.45-.66,.79-.79,1.33-1.18,.35-2.26,.88-3.24,1.63-.13,.1-.34,.21-.46,.34-1.02-.12-1.89-.04-2.51-.02-4.44,.15-8.88,.52-13.18,1.68-3.82,.9-7.52,1.9-11.17,3.35-2.15,.85-6.59,1.9-7.67,4.16-.3,.62-.32,1.1-.14,1.49,0,0,0,0,0,0,.01,.03,.02,.05,.03,.08,0,.01,0,.02,.01,.03,1.45,3.86,3.7,7.22,7.64,8.86,4.43,1.85,9.43,.4,13.83-.8,3.94-1.08,9.84-2.08,12.82-5.21,2.65-2.78,3.54-7.36,3.33-11.13,.74-.5,1.53-.9,2.4-1.16,.04-.01,.06-.03,.09-.05,.51,.22,1.1,.33,1.75,.26,2.84-.3,5.8-2.48,8.46-3.48,2.44-.91,5.18-1.73,7.41-3.11,1.9-1.18,1.76-4.4-.67-5.14Zm-18.61,9.74c.08,.22,.19,.44,.32,.64-.57,.23-1.11,.51-1.63,.83-.16-.22-.38-.4-.63-.54,.61-.39,1.25-.7,1.94-.93ZM2.42,23.1c.52-.77,2.53-1.34,3.36-1.7,4.46-1.95,8.99-3.28,13.71-4.39,2.92-.79,5.87-1.19,8.88-1.41,1.26-.09,5.64-.67,6.48-.16,.94,.9-.82,2.03-2.06,2.5-2.68,1.32-5.43,1.86-8.11,2.58-2.92,.79-5.87,1.5-8.82,2.16-3.41,.76-6.92,1.66-10.43,1.72-1.08,.02-4.3,.61-3-1.3Zm30.97,3.37c-2.48,2.63-7.5,3.48-10.83,4.45-3.78,1.09-8.12,2.54-12.06,1.81-4.05-.75-6.67-3.52-8.31-7.03,4.3,.72,13.52-1.45,14.7-1.72,2.31-.52,15.26-2.61,19.41-5.99-.09,3.03-.91,6.36-2.91,8.48ZM57.45,7.36c-1.02,1.67-6.2,2.72-7.89,3.36-1.08,.41-2.16,.83-3.22,1.29-1,.43-2.06,1.1-3.09,1.43-.75,.32-1.08,.48-1.87,.33-1.38-.29-1.72-1.71-.89-2.27,3.37-1.62,6.84-2.9,10.34-4.21,1.46-.54,2.93-1.35,4.45-1.68,1.14-.24,3.26-.03,2.17,1.75Z"/>
      <path class="cls-1" d="M13.11,14.38c-2.4-2.66,1.31-4.44,2.07-6.69,.48-1.43-.08-2.8-1.53-3.29-.92-.31-1.31,1.14-.4,1.45,1.87,.64-.83,3.08-1.29,3.67-.45,.58-.8,1.22-.97,1.94-.34,1.48,.05,2.87,1.05,3.98,.65,.72,1.71-.34,1.06-1.06Z"/>
      <path class="cls-1" d="M16.34,1.42c3.26,2.11,1.59,4.72,.44,7.57-.5,1.25-.44,2.43,.56,3.39,.7,.67,1.76-.39,1.06-1.06-1.06-1.01,.74-3.46,1.09-4.56,.31-.98,.48-2.1,.3-3.12-.27-1.62-1.37-2.66-2.69-3.51-.81-.53-1.57,.77-.76,1.3Z"/>
      <path class="cls-1" d="M21.71,10.79c.17,1.27,.93,2.08,2.18,2.36,.94,.21,1.34-1.24,.4-1.45-2.03-.45-.69-2.48-.18-3.64,.39-.87,.38-1.71,.04-2.59-.34-.89-1.79-.51-1.45,.4,.65,1.71-1.24,3.1-.99,4.91Z"/>
    </g>
  </g>
</svg>