<?xml version="1.0" encoding="UTF-8"?>
<svg id="Layer_2" data-name="Layer 2" xmlns="http://www.w3.org/2000/svg" viewBox="0 0 50.06 42.53">
  <defs>
    <style>
      .cls-1 {
        fill: #4d4d4d;
      }
    </style>
  </defs>
  <g id="icon">
    <g>
      <path class="cls-1" d="M50.01,14.77c-.11-.95-.05-2.4-.99-2.96-.78-.46-1.85-.06-2.69,.21,0-.17,0-.33,0-.5,0,0,0-.01,0-.02,0-.02,0-.05,0-.07,0-.03-.01-.05-.01-.07,0-.04,0-.09-.01-.12,0-.01-.01-.02-.02-.03-.03-.08-.06-.15-.11-.21-1.17-2.52-4.23-3.45-6.74-4.07-4.07-1-8.33-1.31-12.54-1.38,.19-2.12,3.61-1.2,3.69-3.46,.06-1.68-.93-1.79-2.36-1.93-2.1-.2-4.29-.22-6.38,.06-1.72,.23-2.52,.71-2.31,2.62,.04,.34,.21,.62,.55,.72,1.15,.35,2.58,.6,2.73,2-4.4,.13-8.91,.52-13.14,1.71-1.98,.56-5.25,1.44-5.61,3.88,0,.01,0,.03,0,.04,0,.05-.03,.1-.03,.16,.01,.45,.02,.91,.03,1.37-.91-.12-1.89-.15-2.76,.12C.31,13.14,.01,13.94,0,14.9c0,.92,.13,2.07,.74,2.79,.95,1.13,2.17,.68,3.41,.52,.05,5.23,.05,10.47,.29,15.69,.07,1.61-.25,4.39,.86,5.72,1.27,1.53,4.52,1.74,6.28,2,8.05,1.18,16.53,1.09,24.61,.29,2.72-.27,5.83-.46,8.36-1.59,1.71-.76,1.84-1.39,1.91-3.17,.26-6.46,0-12.94-.11-19.41,1.05,.04,2.14,.11,2.98-.57,.76-.61,.78-1.52,.67-2.42ZM20.93,2.25c-.03-.24,.03-.3,.44-.46,.69-.28,1.73-.21,2.47-.24,1.56-.06,3.19-.08,4.74,.14,.14,.02,.32,.03,.49,.07,0,.1,0,.19,.01,.29-.13,.08-.34,.22-.48,.27-.34,.13-.68,.26-1.01,.4-1.34,.58-2.15,1.34-2.2,2.8-.35,0-.7,0-1.05,0-.01,0-.02,0-.03,0-.14-2.08-1.59-2.71-3.37-3.27Zm-7.91,5.79c3.73-.7,7.53-.95,11.31-1.02,3.93-.01,7.88,.14,11.76,.77,2.32,.37,6.62,.9,8.29,3.06-12.68,1.72-25.83,1.06-38.54-.15,1.28-1.76,5.47-2.33,7.17-2.65ZM1.95,16.82c-.41-.35-.43-1.22-.45-1.71-.02-.67-.03-.84,.66-.93,.6-.09,1.25-.07,1.85,.03,.03,0,.05,0,.07,0,.02,.84,.04,1.69,.05,2.53-.62,.1-1.68,.51-2.17,.09Zm42.74,21.79c-1.18,1.44-5.88,1.53-7.46,1.71-7.19,.81-14.58,.86-21.78,.25-2.29-.19-6.46-.1-8.43-1.57-1.46-1.09-1.04-4.02-1.11-5.75-.29-7.03-.18-14.06-.37-21.09,12.97,1.25,26.35,1.89,39.29,.12-.04,6.47,.15,12.95,.18,19.43,0,1.57,.7,5.68-.3,6.9Zm3.38-22.37c-.3,.1-.82,0-1.14,0-.2,0-.4,0-.6,0-.01-.89-.02-1.78-.02-2.67,.02,0,.03,0,.05,0,.39-.11,1.43-.62,1.83-.46,.28,.11,.32,1.59,.35,1.94,.04,.49,.1,1-.47,1.19Z"/>
      <path class="cls-1" d="M13.46,37.54c-1.73,0-3.95,.32-4.27-1.9-.23-1.59-.24-3.25-.36-4.85-.07-.96-1.57-.96-1.5,0,.09,1.31,.18,2.63,.28,3.94,.07,.98,.09,2,.65,2.85,1.14,1.69,3.42,1.48,5.19,1.47,.96,0,.97-1.51,0-1.5Z"/>
      <path class="cls-1" d="M16.5,37.54c-.97,0-.97,1.5,0,1.5s.97-1.5,0-1.5Z"/>
    </g>
  </g>
</svg>