<?xml version="1.0" encoding="UTF-8"?>
<svg id="Layer_2" data-name="Layer 2" xmlns="http://www.w3.org/2000/svg" viewBox="0 0 48.34 49.88">
  <defs>
    <style>
      .cls-1 {
        fill: #4d4d4d;
      }
    </style>
  </defs>
  <g id="icon">
    <g>
      <path class="cls-1" d="M47.32,.66c-2.13-1.89-4.91,.76-6.26,2.36-.51,.6-.86,1.27-1.25,1.95-1.01,1.75-1.71,2.16-3.51,3.16-.7,.39-1.35,.87-1.85,1.57-.52-.42-1.06-.82-1.61-1.17-2.83-1.78-4.4,1.22-6.36,3.22-2.76,2.81-5.49,5.66-8.19,8.52-2.66,2.59-5.31,5.19-7.94,7.81-1.6,1.6-3.71,2.64-2.37,4.85,.42,.69,.91,1.3,1.47,1.92-.03,.03-.05,.05-.1,.07-.88,.45-1.62,1.21-1.99,2.09-.23,.54-.22,1.53-.57,2.06-.37,.55-1.13,1.07-1.64,1.49-.87,.73-1.79,1.38-2.65,2.12-1.75,1.48-3.85,4.74-1.36,6.65,2.19,1.68,4.92-1.01,6.22-2.63,.61-.76,1.01-1.62,1.5-2.45,.87-1.46,2.01-1.7,3.33-2.51,.76-.47,1.57-1.19,1.96-2.06,.79,.77,1.63,1.46,2.49,1.85,1.69,.76,2.3-.42,3.51-1.61,6.12-6,12.14-12.12,17.98-18.4,1.13-1.21,3.12-2.61,2.86-4.39-.12-.83-.8-1.74-1.52-2.54,.57-.42,.78-.74,1.12-1.31,.07-.12,.27-.53,.32-.63,.76-1.67,.45-1.77,1.57-2.77,.93-.83,1.94-1.57,2.91-2.36,1.8-1.48,4.42-4.66,1.93-6.86ZM12.81,39.12c-.49,1.35-2.87,1.29-3.89,2.43-1.76,1.94-2.41,5.16-5.03,6.29-.15,.11-.31,.21-.47,.31-.96,.7-2.19-.66-1.48-2.59,.28-.81,1.27-1.48,1.89-1.99,1.13-.93,2.33-1.79,3.4-2.79,.66-.63,1.4-1.3,1.71-2.19,.38-1.11-.14-1.66,1.19-2.35,.17-.09,.27-.12,.41-.25,.5,.5,.91,.89,1.38,1.37,.4,.4,.75,.78,1.2,1.26-.09,.15-.22,.3-.3,.51Zm26.28-20.85c-.48,.93-1.66,1.83-2.37,2.6-4.9,5.23-9.94,10.34-15,15.41-.98,.98-2.76,3.56-4.15,4.15,.01-.05-.05-.14-.33-.3-.75-.43-1.46-1.16-2.09-1.74-1.4-1.27-2.74-2.62-4.01-4.02-.62-.69-1.59-1.5-1.97-2.35-.08-.17-.13-.25-.19-.3,.05-.05,.1-.13,.18-.26,.7-1.29,2.48-2.52,3.52-3.55,2.22-2.2,4.45-4.38,6.68-6.56,1.63-1.72,3.26-3.43,4.9-5.13,1.25-1.3,2.5-2.59,3.77-3.87,.68-.69,1.9-2.48,2.84-2.78,1.91-.62,6.36,4.69,7.6,6.29,.99,1.28,1.2,1.29,.62,2.43Zm6.94-13.46c-.47,.85-1.4,1.39-2.14,1.98-1.16,.92-2.45,1.83-3.43,2.95-1.1,1.25-.85,2.86-2.04,3.74-.14-.14-.26-.27-.38-.39-.76-.81-1.58-1.63-2.43-2.41,.93-1.32,2.58-1.05,3.79-2.35,1.85-2,2.5-5.34,5.29-6.46,1.49-.6,2,1.75,1.34,2.94Z"/>
      <path class="cls-1" d="M27.35,14.5c-1.29,1.4-2.62,2.76-4.02,4.06-.71,.66,.36,1.72,1.06,1.06,1.39-1.3,2.73-2.66,4.02-4.06,.65-.71-.41-1.77-1.06-1.06Z"/>
      <path class="cls-1" d="M30.01,12c-.97,0-.97,1.5,0,1.5s.97-1.5,0-1.5Z"/>
    </g>
  </g>
</svg>