<?xml version="1.0" encoding="UTF-8"?>
<svg id="Layer_2" data-name="Layer 2" xmlns="http://www.w3.org/2000/svg" viewBox="0 0 39.46 50.43">
  <defs>
    <style>
      .cls-1 {
        fill: #4d4d4d;
      }
    </style>
  </defs>
  <g id="icon">
    <g>
      <path class="cls-1" d="M14.35,36.4c-.2-1.26-.18-3.22-.94-4.39-.09-3.43-.51-7.77-4.88-7.96-4.82-.21-5.99,3.77-5.96,7.77,0,.01,0,.02,0,.03-.01,.03-.03,.06-.04,.09-.7,2.89-1.24,5.79-1.65,8.73-.28,2.04-1.17,5.17-.8,7.2,.6,3.27,5.3,2.25,7.8,2.39,2.06,.03,6.92,.73,7.9-1.77,.58-1.49-.4-4.6-.6-6.14-.26-1.98-.53-3.97-.85-5.94Zm-5.82-10.85c2.97,.19,3.28,3.09,3.36,5.52-1.04-.13-2.49,.09-3.28,.1-1.51,0-3.03,.02-4.53,.15,.05-2.94,.7-6.01,4.46-5.76Zm5.74,21.7c-.19,.97-1.08,1.38-2.17,1.54-.67-3.49-1.01-7.02-1.55-10.53-.15-.95-1.59-.55-1.45,.4,.53,3.4,.86,6.83,1.49,10.21-1,0-2-.11-2.71-.12-.65-.04-1.51,.02-2.36,.02,.46-3.38,.85-6.77,1.16-10.17,.09-.96-1.41-.96-1.5,0-.3,3.35-.68,6.7-1.14,10.04,0,.02,0,.03,0,.04-.26-.04-.51-.09-.73-.18-2.31-.89-1.65-2.07-1.44-3.88,.38-3.29,.97-6.52,1.51-9.79,.3-1.8-.03-1.74,1.44-2.08,.68-.16,1.51-.06,2.19-.07,1.24-.02,3.64-.43,4.82,.02,.13,.05,.22,.07,.28,.09,0,.01,0,.02,.02,.04,.32,.46,.33,1.57,.43,2.11,.34,1.92,.62,3.86,.88,5.79,.25,1.84,1.15,4.71,.79,6.53Z"/>
      <path class="cls-1" d="M37.35,42.16c2.67-3.49,2.38-9.01,1.43-13.01-1.25-5.32-5.07-10.52-2.94-16.29,.03-.09,.04-.17,.04-.25,1.17-.59,2.07-1.53,2.37-3.07,.86-4.29-2.84-6.08-6.42-6.6,.09-.28,.43-.35,.67-.63,.29-.35,.36-.81,.19-1.23C32.3,.11,31.03,.02,30.13,0c-.95-.01-2.23-.07-2.81,.87-.22,.36-.29,.87-.19,1.27,.04,.18,.13,.34,.25,.48,.07,.08,.26,.2,.41,.32-3.47,.49-6.68,2.14-6.23,6.32,.21,1.97,1.2,3.03,2.55,3.61,2.11,5.76-1.69,10.96-2.95,16.27-.94,3.97-1.23,9.45,1.37,12.94-.21,.05-.41,.11-.58,.2-1.38,.77-.79,3.47-.78,4.81,.01,1.72-.33,2.73,1.43,3.09,2.42,.5,5.31,.11,7.76,.07,2.04-.03,5.1,.45,7.06-.26,1.67-.61,1.31-2.72,1.29-4.32-.03-1.64,.18-2.99-1.36-3.51Zm-14.63,1.47c.38-.05,.92-.03,1.1-.05,2.01-.14,4.05-.14,6.06-.15,1.69,.03,3.38,.08,5.07,.12,.57,.02,1.63-.15,2.21,.04-.02,.09-.03,.2-.04,.38-.02,.45,.06,.93,.07,1.39,0,.02,0,.05,0,.07-4.8-.32-9.71,.05-14.54-.07,0-.47,0-.94,.03-1.41,0-.15,.02-.25,.02-.32ZM28.94,1.92c-.21-.18-.55-.17-.18-.32,.36-.14,.74-.1,1.12-.1,.35,0,.68,0,1.02,.07,.03,0,.05,.02,.08,.02,0,0,0,0,0,0-.41,.32-.63,.71-.67,1.19-.12,0-.25-.02-.37-.02-.18,0-.36,.01-.54,.02-.05-.32-.18-.62-.47-.87Zm-5.88,7.35c-.51-4.16,3.64-4.92,6.88-5,2.93,.09,9.26,1.89,6.44,6.12-1.39,2.08-5.61,1.68-7.74,1.66-2.29-.01-5.24,.05-5.58-2.78Zm1.37,15.73c1.41-3.15,2.28-8.08,1.36-11.65,.9,.15,1.88,.19,2.85,.2,1.64,.01,3.73,.07,5.55-.35-.98,3.59-.11,8.6,1.32,11.8,2.11,4.72,4.38,12.55,.12,16.84-1.87-.15-4.05,.13-5.74,.09-1.38,0-2.77,.03-4.15,.07-.35,.01-.81-.01-1.3-.03-4.44-4.27-2.14-12.21,0-16.97Zm12.72,23.46c-.05-.05-.41,.11-.84,.12-1.98,.02-3.96,.15-5.95,.17-2.03,.03-4.06,.05-6.09,0-.32,0-1.19,.1-1.66,0,.31-.03,.07-1.06,.07-1.65,0-.07,0-.15,0-.22,4.86,.12,9.8-.25,14.63,.07,.02,.6,0,1.18-.15,1.52Z"/>
      <path class="cls-1" d="M25.49,5.99c-1.26,.65-1.83,2.04-1.7,3.41,.1,.95,1.6,.96,1.5,0-.09-.88,.12-1.69,.95-2.12,.86-.44,.1-1.74-.76-1.3Z"/>
      <path class="cls-1" d="M27.68,4.94c-.97,0-.97,1.5,0,1.5s.97-1.5,0-1.5Z"/>
    </g>
  </g>
</svg>