<?xml version="1.0" encoding="UTF-8"?>
<svg id="Layer_2" data-name="Layer 2" xmlns="http://www.w3.org/2000/svg" viewBox="0 0 44.86 46.82">
  <defs>
    <style>
      .cls-1 {
        fill: #4d4d4d;
      }
    </style>
  </defs>
  <g id="icon">
    <g>
      <path class="cls-1" d="M44.43,38.03c-1.25-6.03-2.98-11.96-4.26-17.98-.89-4.23-1.97-7.28-6.54-8.27-2.93-.63-6.12-.7-9.31-.63V6.13s0,0,0-.01c5.97,.19,14.83,1.3,17.39-4.98,.18-.45-.28-.97-.72-.95C28.66,.78,16.15,.44,3.81,0c-.42-.01-.65,.27-.7,.59-.01,.03-.01,.07-.02,.11,0,.02,0,.04,0,.05,0,.07-.02,.13,0,.2,.52,2.84,3.42,3.98,6,4.41,3.69,.63,7.59,.7,11.39,.72,0,.02-.01,.03-.01,.05v5.14c-1.59,.06-3.16,.1-4.68,.09-5.43-.06-8.34,.29-9.88,5.72C3.82,24.49,2.09,32.01,.24,39.5c-.84,3.79,.47,6.21,4.46,6.89,3.91,.66,8.28,.22,12.24,.26,5.08,.05,10.17,.09,15.25,.07,2.89-.01,6.28,.4,9.1-.32,4.13-1.05,3.86-4.87,3.13-8.37ZM4.92,1.54c11.55,.4,23.25,.7,34.8,.2-2.99,4.24-12,2.89-16.52,2.86-3.78-.03-15.86,.96-18.28-3.06ZM21.97,6.09c.29,0,.58,0,.88,0,0,.01,0,.02,0,.04v5.06c-.29,0-.57,.02-.86,.03V6.13s0-.03,0-.04Zm16.69,39.04c-3.66,.14-7.33,.09-10.99,.09-4.51,0-9.02-.05-13.54-.1-3.89-.05-13.88,1.26-12.44-5.23,1.57-6.34,3.02-12.71,4.76-19.01,.52-1.89,.8-4.72,2.03-6.32,2.07-2.68,7.78-1.67,10.72-1.57,4.81,.17,15.42-2.2,18.22,2.88,1.06,1.94,1.24,4.45,1.72,6.57,.65,2.89,1.47,5.75,2.15,8.64,.66,2.8,1.49,5.66,1.93,8.5,.6,3.82-1.41,5.42-4.57,5.54Z"/>
      <path class="cls-1" d="M25.9,14.55c-7.97-1.32-15.99,3.22-17.98,11.28-.98,3.96-.38,8.34,1.78,11.81,2.45,3.93,6.4,5.44,10.82,6.1,3.68,.55,7.46,.44,10.41-2.11,2.99-2.57,5.56-7.46,6.26-11.32,1.3-7.19-4.64-14.04-11.29-15.76Zm5.89,23.85c-2.42,3.4-5.83,4.45-9.9,4.02-4.07-.43-8.19-1.57-10.62-5.09-2.2-3.19-2.81-7.36-1.9-11.1,1.74-7.21,8.97-11.42,16.14-10.23,5.55,1.43,10.61,6.89,10.34,12.9-.14,3.13-2.24,6.97-4.05,9.51Z"/>
      <path class="cls-1" d="M23.02,27.16c0-1.71,.09-3.41-.03-5.12-.07-.96-1.57-.96-1.5,0,.12,1.76,.02,3.52,.03,5.27-.54,.25-.98,.71-1.13,1.37-.29,1.24,.5,2.32,1.73,2.5,1.19,.18,2.08-.6,2.34-1.75,.22-1-.51-1.96-1.43-2.28Zm-.53,2.56c-.95,.04-.78-1.28,.03-1.16,.27,.08,.42,.16,.46,.46,.04,.27-.22,.69-.49,.7Z"/>
      <path class="cls-1" d="M12.99,20.99c-1.81,1.65-3.16,4.62-3.08,7.08,.03,.96,1.53,.97,1.5,0-.07-2.09,1.1-4.61,2.64-6.02,.71-.65-.35-1.71-1.06-1.06Z"/>
      <path class="cls-1" d="M15.07,19.43c-.97,0-.97,1.5,0,1.5s.97-1.5,0-1.5Z"/>
    </g>
  </g>
</svg>