<?xml version="1.0" encoding="UTF-8"?>
<svg id="Layer_2" data-name="Layer 2" xmlns="http://www.w3.org/2000/svg" viewBox="0 0 19.43 59.73">
  <defs>
    <style>
      .cls-1 {
        fill: #4d4d4d;
      }
    </style>
  </defs>
  <g id="icon">
    <g>
      <path class="cls-1" d="M18.51,1.96C17.59,.03,16.05,.23,14.11,.18,10.81,.08,6.95-.29,3.71,.45,.04,1.28,0,4.99,0,8.13c0,3.47-.24,9.74,1.76,12.78,1.23,1.88,3.71,1.88,5.97,1.81,.12,5.76,.05,11.52,0,17.28-.74,.23-1.3,.71-1.64,1.81-.77,2.51-.27,5.8-.25,8.38,.02,2.32-.47,5.66,.32,7.89,.51,1.44,1.43,1.53,2.99,1.59,1.58,.07,3.59,.37,4.4-1.2,1.11-2.16,.52-6.11,.57-8.49,.06-2.53,.65-5.81-.06-8.23-.36-1.23-1.12-1.72-2.09-1.89-.27-5.69,.02-11.41,.02-17.11,2.28,.03,5.02-.09,6.02-2.13,1.06-2.16,.89-5.76,1.07-8.1,.24-3.18,.85-7.55-.58-10.56Zm-5.88,48.02c-.04,1.66-.11,3.32-.16,4.98-.02,.71,.11,2.6-.58,3.1-.48,.35-2.14,.11-2.73,.1-1.94-.01-1.58-.7-1.67-2.44-.08-1.69-.11-3.38-.13-5.07-.03-2.58-1.31-9.3,2.62-9.37,3.95-.16,2.7,6.04,2.65,8.7Zm-2.15-10.21c-.16,0-.33,0-.5,.01-.26,0-.51,0-.74,.02,.05-5.71,.12-11.41,0-17.12,.36,0,.7,0,1.02,.03,.08,0,.16,0,.24,0,0,5.68-.29,11.38-.02,17.05Zm7.14-27.65c-.15,2.18-.2,4.62-.75,6.74-.77,2.94-3.97,2.34-6.61,2.36-2.87-.25-6.23,.69-7.67-2.5-1.24-2.74-1.03-7.12-1.08-10.1-.03-2.3-.1-5.35,2.25-6.66,.68-.38,2.27-.2,3.03-.23,2.43-.1,4.88-.11,7.31-.04,2.53,.07,3.21,.52,3.53,3.18,.29,2.39,.14,4.87-.03,7.26Z"/>
      <path class="cls-1" d="M4.63,5.45c.26,4.06-.04,8.14,.22,12.2,.06,.96,1.56,.97,1.5,0-.26-4.06,.04-8.14-.22-12.2-.06-.96-1.56-.97-1.5,0Z"/>
      <path class="cls-1" d="M9.12,5.37c-.11,4.12-.08,8.25-.06,12.37,0,.97,1.5,.97,1.5,0-.02-4.12-.05-8.25,.06-12.37,.03-.97-1.47-.96-1.5,0Z"/>
      <path class="cls-1" d="M13.51,5.37c-.04,4.12-.16,8.26,0,12.37,.04,.96,1.54,.97,1.5,0-.16-4.12-.04-8.25,0-12.37,0-.97-1.49-.97-1.5,0Z"/>
    </g>
  </g>
</svg>