<?xml version="1.0" encoding="UTF-8"?>
<svg id="Layer_2" data-name="Layer 2" xmlns="http://www.w3.org/2000/svg" viewBox="0 0 54.87 43.98">
  <defs>
    <style>
      .cls-1 {
        fill: #4d4d4d;
      }
    </style>
  </defs>
  <g id="icon">
    <g>
      <path class="cls-1" d="M41.11,29.91c-.08-.06-.18-.1-.3-.11-.12-.03-.23-.04-.33-.02-1.83-.13-3.59,.86-4.03,2.76-.51,2.24,.93,3.99,3.1,4.3,2.06,.29,3.54-1.16,3.94-3.14,.34-1.67-.89-3.22-2.39-3.79Zm-.98,5.48c-1.29-.02-2.37-.77-2.28-2.16,.08-1.3,1.31-2.17,2.56-1.99,.79,.22,1.37,.78,1.55,1.59,.24,1.05-.7,2.58-1.84,2.56Z"/>
      <path class="cls-1" d="M52.42,28.75c-1.62,.05-3.23,.04-4.85,.1-.05-1.31-.12-2.62-.21-3.94-.23-3.57-.21-7.81-2.28-10.9-1.49-2.23-3.78-2.65-6.25-2.98,.12-2.82,.42-5.76,.25-8.56-.1-1.63-.27-1.74-1.92-1.95-8.67-1.09-18.02-.23-26.7,.4-.35,.03-.61,.22-.72,.55-1.09,3.21-1.36,6.72-.85,10.06-2.29,.32-4.84,.71-6.28,2.55C.45,16.84,.46,21.53,.21,24.82c-.38,5.05-.24,10.09,.31,15.12,.04,.4,.31,.75,.75,.75,.65,0,1.31,0,1.96,0,0,.52,.04,1.05,.08,1.57,.03,.47,.07,.95,.42,1.3,.53,.54,1.51,.39,2.19,.38,.85-.01,1.89,.13,2.7-.16,1.15-.42,1.01-2.01,.93-3.1,9.68,.04,19.37,.2,29.04-.17-.02,.58,.04,1.16,.08,1.74,.03,.46,.07,.95,.42,1.3,.56,.58,1.67,.39,2.39,.38,.86-.01,2.03,.17,2.77-.3,.98-.61,.68-2.4,.54-3.44,.72-.05,1.45-.08,2.17-.13,.09,0,.16-.04,.23-.07,.02,0,.03,0,.05-.01,.02-.01,.05-.02,.07-.04,.22-.11,.4-.31,.4-.63,.03-1.96,.02-3.92-.01-5.88,1.8,.02,3.61-.07,5.4-.29,1.27-.15,1.84-.61,1.77-1.94-.09-1.77-.68-2.51-2.45-2.46ZM10.39,5.26c.37-2.52,.44-2.81,2.91-3.04,4.26-.39,8.59-.44,12.86-.45,2.26,0,10.5-.93,11.4,1.09,.41,.92-.09,3.15-.11,4.13-.03,1.29-.07,2.57-.12,3.86-4.62-.6-9.28-.86-13.94-.76-4.36,.1-8.72,.51-13.02,1.22,0,0,0,0-.01,0-.32-2.03-.27-4.03,.03-6.06Zm-2.35,36.46c-.01,.66,.1,.69-.55,.71-.49,.02-.98,0-1.47,.02-.25,0-1.15,.15-1.34,0,.25,.21,.11-.62,.09-.79-.03-.33-.04-.65-.04-.96,1.1,0,2.2,0,3.29,0,0,.35,.02,.69,.01,1.04Zm7.44-2.5c-2.86-.02-5.72-.04-8.57-.05-1.12,0-2.46,.25-3.53,0-1.62-.37-1.27-.68-1.64-2.1-.67-2.59-.29-5.99-.22-8.65,.08-2.8,.29-5.61,.72-8.38,.57-3.71,1.84-6,5.7-6.77,2.98-.59,6-1.02,9.03-1.3,5.22-.49,10.48-.52,15.7-.11,2.66,.21,6.39,0,8.8,1.17,3.72,1.81,3.95,6.15,4.24,9.75,.42,5.27,.56,10.56,.51,15.85-10.23,.73-20.48,.68-30.73,.6Zm27.85,3.18c-.24,.21-1.39,.04-1.76,.05-.33,0-1.27,.18-1.53,0,.23,.17,.11-.42,.1-.61-.03-.47-.05-.91-.04-1.36,1.07-.05,2.13-.11,3.2-.17,.09,.64,.26,1.91,.03,2.1Zm9.5-10.71c-.47,.03-.94,.09-1.41,.13-1.24,.09-2.49,.15-3.74,.13-.01-.53-.04-1.06-.05-1.59,.92-.04,1.84-.06,2.77-.06,.98,0,3.11-.56,2.98,.91-.05,.53,.04,.44-.54,.48Z"/>
      <path class="cls-1" d="M12.95,5.57h.07c.97,0,.97-1.5,0-1.5h-.07c-.97,0-.97,1.5,0,1.5Z"/>
      <path class="cls-1" d="M18.44,5.36h.07c.97,0,.97-1.5,0-1.5h-.07c-.97,0-.97,1.5,0,1.5Z"/>
      <path class="cls-1" d="M25.16,5.57c.97,0,.97-1.5,0-1.5s-.97,1.5,0,1.5Z"/>
      <path class="cls-1" d="M32.31,4.77c.97,0,.97-1.5,0-1.5s-.97,1.5,0,1.5Z"/>
      <path class="cls-1" d="M28.56,7.69c.97,0,.97-1.5,0-1.5s-.97,1.5,0,1.5Z"/>
      <path class="cls-1" d="M21.8,7.69c.97,0,.97-1.5,0-1.5s-.97,1.5,0,1.5Z"/>
      <path class="cls-1" d="M15.46,7.94c.97,0,.97-1.5,0-1.5s-.97,1.5,0,1.5Z"/>
      <path class="cls-1" d="M13.08,9.76v-.07c0-.97-1.5-.97-1.5,0v.07c0,.97,1.5,.97,1.5,0Z"/>
      <path class="cls-1" d="M31.87,9.57c.97,0,.97-1.5,0-1.5s-.97,1.5,0,1.5Z"/>
      <path class="cls-1" d="M35.38,6.23c.97,0,.97-1.5,0-1.5s-.97,1.5,0,1.5Z"/>
      <path class="cls-1" d="M25.51,9.57c.97,0,.97-1.5,0-1.5s-.97,1.5,0,1.5Z"/>
      <path class="cls-1" d="M18.67,8.32c-.97,0-.97,1.5,0,1.5s.97-1.5,0-1.5Z"/>
    </g>
  </g>
</svg>