<?xml version="1.0" encoding="UTF-8"?>
<svg id="Layer_2" data-name="Layer 2" xmlns="http://www.w3.org/2000/svg" viewBox="0 0 20.3 58.69">
  <defs>
    <style>
      .cls-1 {
        fill: #4d4d4d;
      }
    </style>
  </defs>
  <g id="icon">
    <path class="cls-1" d="M13.72,.7C12.64,.29,11.57,.1,10.53,.06c-.37-.09-.71-.07-1.02,.02C4.55,.43,.5,4.72,.06,10.02c-.77,9.33,5.59,17.4,8.12,26.03-1.61,.22-2.05,1.01-1.89,3.9,.01,.25,.13,.53,.37,.65,3.47,1.71,.03,11.1,.95,14.3,.57,1.97,2.24,3.96,4.48,3.78,2.69-.21,3.1-2.62,3.37-4.82,.18-1.5,.23-3.02-.04-4.51-.4-2.22-2.87-7.07-.16-8.75,.02-.01,.03-.04,.05-.05,.07-.04,.12-.1,.17-.16,0,0,.01-.01,.01-.02,.05-.07,.08-.15,.1-.25,0,0,0-.01,0-.02,0-.05,.03-.09,.03-.15-.05-2.97-.32-3.75-2.01-3.94,1.3-6.8,4.26-13.2,6.02-19.87,1.57-5.97,.53-12.97-5.94-15.44Zm-2.76,33.69c-.82-5.95-2.55-11.74-3.25-17.71-.39-3.34-.55-6.96,.05-10.29,.3-1.67,1.02-6.37,3.68-3.77,1.08,1.05,1.24,3.73,1.4,5.15,1,8.73-1.13,17.86-1.87,26.63ZM3.98,4.24c1.03-1.09,2.3-1.83,3.64-2.25-1.19,2.34-1.6,6.08-1.66,7.37-.47,8.99,2.66,17.45,3.67,26.28-1.81-6.21-5.3-11.76-7.13-17.96C1.23,13.4,.63,7.77,3.98,4.24ZM14.15,39.57c-2.22,1.71-1.6,4.75-.97,7.23,.67,2.61,1.15,4.9,.71,7.61-.17,1-.44,2.26-1.56,2.68-3.87,1.45-3.51-4.97-3.37-6.51,.29-3.22,1.57-7.27-.15-10.25-.9-1.55-1.85-2.37,.55-2.85,.8-.16,2.42-.24,3.26-.02,1.75,.46,1.53,.28,1.53,2.12Zm2.22-17.85c-1.35,4.1-2.91,8.21-3.88,12.43,.43-5.67,1.15-11.31,1.68-16.97,.34-3.69,1.42-11.22-1.06-15.08,1.45,.52,2.77,1.44,3.78,2.76,3.87,5.07,1.23,11.52-.52,16.86Z"/>
  </g>
</svg>