<?xml version="1.0" encoding="UTF-8"?>
<svg id="Layer_2" data-name="Layer 2" xmlns="http://www.w3.org/2000/svg" viewBox="0 0 57.44 34.32">
  <defs>
    <style>
      .cls-1 {
        fill: #4d4d4d;
      }
    </style>
  </defs>
  <g id="icon">
    <g>
      <path class="cls-1" d="M57.36,29.74c-.09-.27-.31-.48-.68-.47-.91,.03-1.82,.04-2.73,.07,0-.02,0-.03,0-.05-1.4-9.42-5.7-19.04-14.96-23-2.59-1.11-5.33-1.74-8.08-1.98,.34-.38,.55-.9,.57-1.55C31.53,1.09,30.19-.03,28.57,0c-1.37,.03-2.61,1.18-2.73,2.55-.06,.68,.19,1.29,.6,1.76-8.38,.7-16.25,5.31-19.95,13.31-1.72,3.71-2.61,7.74-2.9,11.81-.93-.01-1.85-.03-2.78-.04-.08,0-.17,0-.25,.03-.31,.06-.49,.3-.53,.57-.06,.22-.03,.47,.17,.68,1.13,1.21,2.24,3.06,3.82,3.5,1.27,.35,3.15,0,4.45,0H47.67c1.58,0,3.57,.33,5.12,0,1.89-.41,2.98-2.27,4.42-3.62,.27-.25,.28-.56,.15-.81ZM28.57,1.5c.81-.06,1.45,.42,1.42,1.26-.03,.83-.72,.95-1.43,.96-1.67,.09-1.45-2.11,.02-2.22Zm-1.48,4.37c8.5-.4,16.33,2.85,20.87,10.23,2.48,4.03,3.78,8.63,4.5,13.27-15.79,.38-31.58,.31-47.37,.07C5.99,16.83,13.68,6.5,27.09,5.87Zm26.66,26c-.08,.1-.81,.67-.81,.83-.22,0-.46-.05-.64-.03-1.85,.15-3.78,0-5.64,0H9.42c-1.61,0-3.33,.16-4.94,0-.29-.03-.48-.07-.53-.07-.57-.4-1.11-1.04-1.62-1.69,17.46,.27,34.94,.38,52.4-.09-.35,.34-.69,.69-.98,1.06Z"/>
      <path class="cls-1" d="M16.91,11.66c-4.01,2.65-6.9,6.46-8.34,11.05-.29,.92,1.16,1.32,1.45,.4,1.33-4.21,3.97-7.73,7.65-10.16,.8-.53,.05-1.83-.76-1.3Z"/>
      <path class="cls-1" d="M20.47,10.51c-.68-.68-1.74,.38-1.06,1.06,.02,.02,.04,.04,.07,.07,.68,.68,1.74-.38,1.06-1.06-.02-.02-.04-.04-.07-.07Z"/>
    </g>
  </g>
</svg>